<svg xmlns="http://www.w3.org/2000/svg" width="16" height="12.8" viewBox="0 0 16 12.8">
  <path id="Icon_awesome-eye-slash" data-name="Icon awesome-eye-slash" d="M8,10A3.587,3.587,0,0,1,4.428,6.672L1.805,4.645a8.332,8.332,0,0,0-.918,1.39.809.809,0,0,0,0,.73A8.018,8.018,0,0,0,8,11.2a7.765,7.765,0,0,0,1.947-.261l-1.3-1A3.6,3.6,0,0,1,8,10Zm7.845,1.452L13.082,9.316a8.281,8.281,0,0,0,2.031-2.552.809.809,0,0,0,0-.73A8.018,8.018,0,0,0,8,1.6a7.7,7.7,0,0,0-3.683.942L1.137.084a.4.4,0,0,0-.561.07L.084.786a.4.4,0,0,0,.07.561L14.863,12.716a.4.4,0,0,0,.561-.07l.491-.632a.4.4,0,0,0-.07-.561ZM11.253,7.9l-.982-.759a2.369,2.369,0,0,0-2.9-3.048A1.191,1.191,0,0,1,7.6,4.8a1.166,1.166,0,0,1-.039.25L5.721,3.628A3.558,3.558,0,0,1,8,2.8a3.6,3.6,0,0,1,3.6,3.6,3.515,3.515,0,0,1-.347,1.5Z" transform="translate(0 0)" fill="#666"/>
</svg>
