<svg xmlns="http://www.w3.org/2000/svg" width="4.266" height="16" viewBox="0 0 4.266 16">
  <g id="ellipsis-svgrepo-com" transform="translate(19.637) rotate(90)">
    <g id="Group_4047" data-name="Group 4047" transform="translate(0 15.371)">
      <path id="Path_3560" data-name="Path 3560" d="M4.281,17.5a2.14,2.14,0,1,1-2.14-2.132A2.136,2.136,0,0,1,4.281,17.5Z" transform="translate(0 -15.371)" fill="#999"/>
      <path id="Path_3561" data-name="Path 3561" d="M19.631,17.5a2.14,2.14,0,1,1-2.14-2.132A2.136,2.136,0,0,1,19.631,17.5Z" transform="translate(-9.491 -15.371)" fill="#999"/>
      <path id="Path_3562" data-name="Path 3562" d="M34.982,17.5a2.14,2.14,0,1,1-2.14-2.132A2.136,2.136,0,0,1,34.982,17.5Z" transform="translate(-18.982 -15.371)" fill="#999"/>
    </g>
  </g>
</svg>
