<svg xmlns="http://www.w3.org/2000/svg" width="19.864" height="19.864" viewBox="0 0 19.864 19.864">
  <path id="Icon_material-account-box" data-name="Icon material-account-box" d="M4.5,6.707v15.45a2.207,2.207,0,0,0,2.207,2.207h15.45a2.214,2.214,0,0,0,2.207-2.207V6.707A2.214,2.214,0,0,0,22.157,4.5H6.707A2.207,2.207,0,0,0,4.5,6.707Zm13.243,4.414a3.311,3.311,0,1,1-3.311-3.311A3.306,3.306,0,0,1,17.743,11.121ZM7.811,19.95c0-2.207,4.414-3.421,6.621-3.421s6.621,1.214,6.621,3.421v1.1H7.811Z" transform="translate(-4.5 -4.5)" fill="#d4d4d4"/>
</svg>
