<svg id="Group_3146" data-name="Group 3146" xmlns="http://www.w3.org/2000/svg" xmlns:xlink="http://www.w3.org/1999/xlink" width="35.278" height="28.105" viewBox="0 0 35.278 28.105">
  <defs>
    <clipPath id="clip-path">
      <rect id="Rectangle_51" data-name="Rectangle 51" width="35.278" height="28.105" fill="none"/>
    </clipPath>
  </defs>
  <g id="Group_3146-2" data-name="Group 3146" clip-path="url(#clip-path)">
    <path id="Path_346" data-name="Path 346" d="M116.836,266.295c2.261,0,4.522.011,6.783-.013.32,0,.41.138.382.613s-.013.929,0,1.393c0,.251-.051.36-.215.333a1.135,1.135,0,0,0-.187,0c-4.534,0-9.068-.007-13.6.014-.342,0-.438-.147-.4-.643.044-.549-.156-1.289.082-1.6.2-.272.666-.088,1.014-.089q3.073-.005,6.146,0" transform="translate(-99.257 -241.206)" fill="#918787"/>
    <path id="Path_347" data-name="Path 347" d="M41.079,199.656q-2.183,0-4.367,0a.366.366,0,0,1-.084-.008c0-.006,0-.012,0-.02l.136-.676h-2.7l-.1.081a3.086,3.086,0,0,1-.559.092l0-.173H30.464v.563a.411.411,0,0,1-.011.1l-.046.006a4.271,4.271,0,0,1-.526.046h-.006c-2.892-.01-5.832-.009-8.674-.009h-3.6l.71.911a10.268,10.268,0,0,0,2.129,2.037,13.949,13.949,0,0,0,3.541,1.788l.33.12a6.017,6.017,0,0,0,2.107.492l6.484,0,7.791,0a1.887,1.887,0,0,0,.482-.047,21.323,21.323,0,0,0,3.235-1.111,10.823,10.823,0,0,0,3.828-2.672c.023-.025.059-.057.1-.092a1.271,1.271,0,0,0,.476-.784l.09-.643Z" transform="translate(-15.941 -180.247)" fill="#ff7b79"/>
    <path id="Path_348" data-name="Path 348" d="M48.6,22.164q-6.766,0-13.531-.007c-.2,0-.467.143-.607-.176a.982.982,0,0,1,0-1.085,1.394,1.394,0,0,1,.987-.565.761.761,0,0,0,.614-1.267,1.789,1.789,0,0,1-.365-.8c-.071-.646.255-1.065,1.045-1.167a4.467,4.467,0,0,1,.563,0,.726.726,0,0,0,.722-1.017,1.827,1.827,0,0,1-.083-1.234.82.82,0,0,1,.685-.552,2.1,2.1,0,0,1,1.119.141.668.668,0,0,0,.942-.61,4.059,4.059,0,0,1,.065-.967.953.953,0,0,1,1.268-.722,2.373,2.373,0,0,1,.728.35c.494.379,1.064.049,1.187-.625a1.214,1.214,0,0,1,.97-1.134,1.049,1.049,0,0,1,.932.292c.152.128.282.281.424.422a.676.676,0,0,0,1.161-.185c.174-.313.279-.675.643-.857a1.133,1.133,0,0,1,1.476.324,5.1,5.1,0,0,1,.3.538.664.664,0,0,0,1.124.182,3.844,3.844,0,0,1,.559-.529,1.065,1.065,0,0,1,1.712.657c.1.293.058.636.35.864a.71.71,0,0,0,.824.066,2.193,2.193,0,0,1,1.2-.416,1.092,1.092,0,0,1,.945,1.112c-.012.382-.13.794.242,1.1a.6.6,0,0,0,.724.122,1.721,1.721,0,0,1,1.154-.119,1.025,1.025,0,0,1,.67,1.332,2.438,2.438,0,0,1-.113.39.732.732,0,0,0,.7,1.07,2.262,2.262,0,0,1,1.114.159.85.85,0,0,1,.486,1.053,2.238,2.238,0,0,1-.357.76c-.412.517-.083,1.154.612,1.268a1.245,1.245,0,0,1,1.132.832,1.015,1.015,0,0,1-.217.923c-.093.132-.239.067-.36.067q-6.871.005-13.743,0" transform="translate(-31.069 -9.297)" fill="#fff5f5"/>
    <path id="Path_349" data-name="Path 349" d="M179.476,79.241a.613.613,0,0,0,.4.665.625.625,0,0,0,.753-.151c.472-.473.949-.942,1.421-1.416a.651.651,0,0,0,.013-.967.727.727,0,0,0-1.012-.009c-.45.462-.908.916-1.369,1.368a.585.585,0,0,0-.209.51" transform="translate(-162.598 -69.908)" fill="#d8c5c5"/>
    <path id="Path_350" data-name="Path 350" d="M89.53,94.037a.674.674,0,0,0,1.174.528c.468-.477.947-.943,1.417-1.419a.632.632,0,0,0,0-.938.68.68,0,0,0-1.006-.026c-.461.451-.913.911-1.372,1.363a.588.588,0,0,0-.217.491" transform="translate(-81.109 -83.326)" fill="#d8c5c5"/>
    <path id="Path_351" data-name="Path 351" d="M269.47,92.667a.556.556,0,0,0,.18.49c.481.481.956.968,1.444,1.44a.66.66,0,0,0,.977-.078.627.627,0,0,0,0-.912c-.477-.484-.961-.963-1.443-1.442a.671.671,0,0,0-.819-.133.592.592,0,0,0-.34.634" transform="translate(-244.13 -83.305)" fill="#d8c5c5"/>
    <path id="Path_352" data-name="Path 352" d="M240.811,63.258c.258,0,.517.008.774,0a.773.773,0,0,0,.669-.676.675.675,0,0,0-.536-.66,6.043,6.043,0,0,0-1.7-.055c-.406.011-.617.374-.573.825a.666.666,0,0,0,.7.567c.223,0,.446,0,.669,0" transform="translate(-216.925 -56.019)" fill="#d8c5c5"/>
    <path id="Path_353" data-name="Path 353" d="M135.831,108.09h.809a.788.788,0,0,0,.64-.668.67.67,0,0,0-.519-.669,5.237,5.237,0,0,0-1.7-.051c-.488.036-.624.378-.586.809a.662.662,0,0,0,.69.578c.223,0,.446,0,.669,0" transform="translate(-121.825 -96.63)" fill="#d8c5c5"/>
    <path id="Path_354" data-name="Path 354" d="M225.856,108.163c.258,0,.517.009.774,0a.76.76,0,0,0,.643-.659.662.662,0,0,0-.506-.675,6.2,6.2,0,0,0-1.7-.057c-.415.008-.626.347-.593.806a.655.655,0,0,0,.681.587c.235,0,.469,0,.7,0" transform="translate(-203.365 -96.704)" fill="#d8c5c5"/>
    <path id="Path_355" data-name="Path 355" d="M180.851,48.317h.773c.012,0,.023,0,.035,0a.794.794,0,0,0,.638-.67.76.76,0,0,0-.532-.667,5.638,5.638,0,0,0-1.595-.059c-.5.017-.713.308-.685.792.022.38.307.6.768.6h.6" transform="translate(-162.609 -42.485)" fill="#d8c5c5"/>
    <path id="Path_356" data-name="Path 356" d="M134.529,49c0,.234,0,.467,0,.7a.661.661,0,0,0,.562.7.7.7,0,0,0,.78-.558,6.342,6.342,0,0,0,.057-1.522.842.842,0,0,0-.133-.376c-.162-.313-.453-.327-.752-.289a.527.527,0,0,0-.514.571c0,.257,0,.514,0,.771" transform="translate(-121.881 -43.162)" fill="#d8c5c5"/>
    <path id="Path_357" data-name="Path 357" d="M40.64,149.352a.813.813,0,0,0-.614-.2c-9.459.006-19.076.007-28.377.006H7.683a.882.882,0,0,0-.738.224.876.876,0,0,0-.077.757,4.112,4.112,0,0,1,.06.5.679.679,0,0,0,.729.686c.229,0,.458,0,.68-.01a6.487,6.487,0,0,1,1.421.06c.274.053.284.066.267.343a.274.274,0,0,1-.294.251c-.479,0-.958,0-1.44,0H7.22l.093.451a4.739,4.739,0,0,0,.25.776c.045.117.088.227.126.338a.863.863,0,0,0,.815.716h.006c9.809-.051,11.982.253,12.46.4l.009.18h5.872l-.029-.14c1.456-.261,8.424-.562,12.362-.564l.049,0a.612.612,0,0,0,.676-.389l.072-.184a9.167,9.167,0,0,0,.384-1.118l.119-.469H39.375c-.5,0-.988,0-1.478,0a.3.3,0,0,1-.273-.211c-.027-.161,0-.337.108-.363l.041-.01a1.806,1.806,0,0,1,.471-.076c.468.012.942.01,1.4.007l.478,0a.2.2,0,0,1,.03,0,.551.551,0,0,0,.444-.148.522.522,0,0,0,.135-.417,1.971,1.971,0,0,1,.036-.425,3.615,3.615,0,0,0,.046-.4.764.764,0,0,0-.173-.582" transform="translate(-6.178 -135.131)" fill="#ffda8f"/>
    <path id="Path_358" data-name="Path 358" d="M60.836,168.7c.269,0,.539.011.808,0a.773.773,0,0,0,.639-.668.668.668,0,0,0-.525-.666,6.11,6.11,0,0,0-1.7-.055c-.41.011-.622.364-.582.818a.661.661,0,0,0,.694.575c.223,0,.445,0,.668,0" transform="translate(-53.879 -151.548)"/>
    <path id="Path_359" data-name="Path 359" d="M105.813,168.686c.258,0,.516.008.773,0a.77.77,0,0,0,.665-.68.669.669,0,0,0-.541-.655,5.925,5.925,0,0,0-1.7-.054c-.409.014-.617.379-.57.828a.671.671,0,0,0,.707.563c.223,0,.445,0,.668,0" transform="translate(-94.614 -151.535)"/>
    <path id="Path_360" data-name="Path 360" d="M150.761,168.691h.808a.781.781,0,0,0,.664-.684.674.674,0,0,0-.539-.654,6,6,0,0,0-1.7-.053c-.409.014-.618.379-.57.828a.671.671,0,0,0,.707.563c.211,0,.422,0,.633,0" transform="translate(-135.368 -151.54)"/>
    <path id="Path_361" data-name="Path 361" d="M240.771,168.7h.809a.788.788,0,0,0,.639-.671.666.666,0,0,0-.521-.666,6.112,6.112,0,0,0-1.7-.056c-.412.01-.623.36-.584.815a.66.66,0,0,0,.692.577c.223,0,.445,0,.668,0" transform="translate(-216.899 -151.547)"/>
    <path id="Path_362" data-name="Path 362" d="M285.788,168.7c.258,0,.516.009.773,0a.763.763,0,0,0,.642-.662.663.663,0,0,0-.512-.672,6.129,6.129,0,0,0-1.7-.056c-.415.01-.626.353-.589.81a.659.659,0,0,0,.686.583c.234,0,.468,0,.7,0" transform="translate(-257.658 -151.548)"/>
    <path id="Path_363" data-name="Path 363" d="M195.756,168.672h.808a.786.786,0,0,0,.64-.669.665.665,0,0,0-.518-.667,5.732,5.732,0,0,0-1.7-.053c-.428.019-.634.384-.589.813a.666.666,0,0,0,.693.577c.223,0,.445,0,.668,0" transform="translate(-176.114 -151.521)"/>
    <path id="Path_364" data-name="Path 364" d="M29.585,23.652a9.86,9.86,0,0,0,5.395-6.931c.079-.368.126-.738.176-1.13.036-.283.073-.576.123-.866V13.6a.545.545,0,0,0-.556-.228c-.263.018-.525.014-.777.011-.163,0-.317,0-.472,0a.514.514,0,0,1-.571-.652,1.96,1.96,0,0,0-1.1-2.3.647.647,0,0,1-.321-.845,2.127,2.127,0,0,0-.151-1.664,2.137,2.137,0,0,0-1.372-.967.67.67,0,0,1-.57-.738,2.111,2.111,0,0,0-.578-1.581,2.111,2.111,0,0,0-1.583-.565.643.643,0,0,1-.717-.551,2.178,2.178,0,0,0-.983-1.4,2.128,2.128,0,0,0-1.667-.137.643.643,0,0,1-.837-.341A2.14,2.14,0,0,0,21.733.541a2.175,2.175,0,0,0-1.69.313.629.629,0,0,1-.865-.126A2.147,2.147,0,0,0,17.637,0h0A2.132,2.132,0,0,0,16.1.73a.626.626,0,0,1-.866.122,2.189,2.189,0,0,0-1.7-.308,2.14,2.14,0,0,0-1.286,1.093.646.646,0,0,1-.839.336,2.126,2.126,0,0,0-1.664.139,2.18,2.18,0,0,0-.983,1.4.648.648,0,0,1-.719.547,2.105,2.105,0,0,0-1.59.576,2.086,2.086,0,0,0-.569,1.571.661.661,0,0,1-.572.738,2.134,2.134,0,0,0-1.374.972A2.108,2.108,0,0,0,3.8,9.575a.661.661,0,0,1-.357.863,1.955,1.955,0,0,0-1.075,2.241.6.6,0,0,1-.1.518.6.6,0,0,1-.5.18c-.212,0-.423-.006-.634-.006-.229,0-.459,0-.692,0-.345,0-.44.1-.442.453a13.816,13.816,0,0,0,.14,1.98,9.7,9.7,0,0,0,3.852,6.76,15.465,15.465,0,0,0,5.214,2.456.788.788,0,0,1,.654.877c-.022.469-.016.954-.01,1.422q0,.176,0,.351c0,.323.107.427.43.427,4.845,0,9.793,0,14.706,0,.3,0,.433-.066.435-.457l0-.345c0-.483.008-.983-.008-1.47A.71.71,0,0,1,26,25.052a17.668,17.668,0,0,0,3.581-1.4M3.12,11.616a1.62,1.62,0,0,1,.978-.758,4.173,4.173,0,0,1,.448-.116.45.45,0,0,0,.342-.213.455.455,0,0,0-.1-.4,2.537,2.537,0,0,1-.39-.811A1.363,1.363,0,0,1,5.524,7.566l.029-.006a1.629,1.629,0,0,1,.728-.024.382.382,0,0,0,.4-.127A.375.375,0,0,0,6.7,6.98a1.776,1.776,0,0,1-.16-.955A1.317,1.317,0,0,1,7.9,4.714a2.522,2.522,0,0,1,.925.16.457.457,0,0,0,.418-.013.453.453,0,0,0,.113-.4c0-.006,0-.013,0-.019a.832.832,0,0,1-.011-.109A1.7,1.7,0,0,1,10.059,2.7a1.625,1.625,0,0,1,1.741.157c.053.032.1.065.143.095a1.275,1.275,0,0,0,.109.072.349.349,0,0,0,.314.025.334.334,0,0,0,.183-.241c.009-.041.018-.081.027-.122a2.843,2.843,0,0,1,.222-.7,1.376,1.376,0,0,1,2.128-.556,2.693,2.693,0,0,1,.487.433c.166.185.326.287.43.272s.218-.146.321-.354a2.4,2.4,0,0,1,.444-.647,1.454,1.454,0,0,1,1.03-.475h.008a1.465,1.465,0,0,1,1.04.494,2.784,2.784,0,0,1,.466.708.441.441,0,0,0,.291.269.427.427,0,0,0,.341-.178l.06-.069a2.828,2.828,0,0,1,.2-.214,1.6,1.6,0,0,1,1.533-.483A1.629,1.629,0,0,1,22.64,2.407c.164.595.261.661.279.669s.129.028.645-.264a1.606,1.606,0,0,1,1.682-.09,1.645,1.645,0,0,1,.683,1.61l0,.056c-.012.218-.012.322.048.4a.318.318,0,0,0,.421.109,2.455,2.455,0,0,1,1.009-.18,1.327,1.327,0,0,1,1.335,1.339,2.436,2.436,0,0,1-.155.931.483.483,0,0,0,.006.434.483.483,0,0,0,.42.112,2.5,2.5,0,0,1,.494,0,1.581,1.581,0,0,1,1.282.758,1.6,1.6,0,0,1-.089,1.5,2.921,2.921,0,0,1-.17.278c-.024.035-.047.071-.07.107a.4.4,0,0,0-.063.363.375.375,0,0,0,.289.2,2.6,2.6,0,0,1,.99.364A1.32,1.32,0,0,1,32.3,12.36a.976.976,0,0,1-1.1,1.013H15.391c-3.694,0-7.514,0-11.271,0h0c-.027,0-.063,0-.1.007s-.1.009-.161.009a.715.715,0,0,1-.691-.418,1.406,1.406,0,0,1-.046-1.352M24.748,26.125c-.008.547-.012.848-.242,1.072s-.532.222-1.083.222H20.875c-3.118,0-6.343,0-9.514.008h-.008a.85.85,0,0,1-.671-.234.8.8,0,0,1-.145-.639,1.942,1.942,0,0,0,0-.47.705.705,0,0,1,.146-.56.764.764,0,0,1,.6-.209c1.631.007,3.29.006,4.895.005h3.036c1.561,0,3.175,0,4.761-.007a.8.8,0,0,1,.591.194.781.781,0,0,1,.188.58Zm-1.191-1.5h-.113c-3.629-.038-7.435-.038-11.637,0a9.577,9.577,0,0,1-3.29-.519,13.041,13.041,0,0,1-5.171-3.01L3.3,21.046a3.85,3.85,0,0,1-.644-.8l-.324-.564H14.3c.237,0,.519-.051.52-.294a.338.338,0,0,0-.085-.267A.661.661,0,0,0,14.279,19H12.337c-3.261,0-6.632,0-9.948.008a.811.811,0,0,1-.867-.6c-.034-.1-.074-.2-.116-.313a3.931,3.931,0,0,1-.244-.8l-.073-.438H2.122c.445,0,.883,0,1.322,0,.3,0,.453-.114.455-.334a.3.3,0,0,0-.077-.221.52.52,0,0,0-.368-.117c-.643,0-1.326-.006-2,0H1.44a.58.58,0,0,1-.651-.6C.778,15.288.742,15,.7,14.689l0-.02a.558.558,0,0,1,.133-.479.543.543,0,0,1,.457-.151,1,1,0,0,0,.1,0H5.657c9.224,0,18.762,0,28.142-.008a.8.8,0,0,1,.621.206.774.774,0,0,1,.147.626l-.005.055c-.108,1.121-.269,1.263-1.431,1.263h-.408c-.315,0-.64,0-.958,0-.241,0-.385.128-.386.333s.141.332.38.335c.455.006.9,0,1.378,0h1.073l-.093.452a6.208,6.208,0,0,1-.421,1.219l-.053.124a.584.584,0,0,1-.666.349.441.441,0,0,0-.045,0q-2.61,0-5.22,0H25.1q-2.1,0-4.2,0c-.335,0-.406.149-.433.31a.327.327,0,0,0,.057.251.308.308,0,0,0,.211.122,1.692,1.692,0,0,0,.232.006H32.92l-.3.554a3.339,3.339,0,0,1-.614.777l-.069.071a12.744,12.744,0,0,1-4.967,2.947,9.955,9.955,0,0,1-3.415.592" transform="translate(0)"/>
  </g>
</svg>
