<svg xmlns="http://www.w3.org/2000/svg" width="23.616" height="17.068" viewBox="0 0 23.616 17.068">
  <g id="Group_4064" data-name="Group 4064" transform="translate(-42.297 -422.337)">
    <g id="Page-1" transform="translate(48.844 422.337)">
      <g id="Dribbble-Light-Preview" transform="translate(0 0)">
        <g id="icons">
          <path id="profile_round-_1342_" data-name="profile_round-[#1342]" d="M98.135,2014.362h-11.2a.849.849,0,0,1-.82-1.142,7.17,7.17,0,0,1,12.841,0,.849.849,0,0,1-.82,1.142m-9.085-10.241a3.485,3.485,0,1,1,3.484,3.414,3.454,3.454,0,0,1-3.484-3.414m11.981,9.93a8.122,8.122,0,0,0-5.222-5.942,5.064,5.064,0,0,0,1.891-4.782,5.237,5.237,0,0,0-10.393.794,5.067,5.067,0,0,0,1.953,3.988,8.122,8.122,0,0,0-5.223,5.942,1.706,1.706,0,0,0,1.715,2.017H99.315a1.706,1.706,0,0,0,1.715-2.017" transform="translate(-84 -1999)" fill="#888" fill-rule="evenodd"/>
        </g>
      </g>
    </g>
    <g id="Icon_feather-plus" data-name="Icon feather-plus" transform="translate(43.547 428.222)">
      <path id="Path_4" data-name="Path 4" d="M18,7.5v5.886" transform="translate(-15.057 -7.5)" fill="none" stroke="#888" stroke-linecap="round" stroke-linejoin="round" stroke-width="2.5"/>
      <path id="Path_5" data-name="Path 5" d="M7.5,18h5.886" transform="translate(-7.5 -15.057)" fill="none" stroke="#888" stroke-linecap="round" stroke-linejoin="round" stroke-width="2.5"/>
    </g>
  </g>
</svg>
