<svg xmlns="http://www.w3.org/2000/svg" width="16.319" height="20.398" viewBox="0 0 16.319 20.398">
  <path id="Path_11" data-name="Path 11" d="M4,12.2a1.02,1.02,0,0,0,1.02,1.02h7.741l-2.346,2.336A1.024,1.024,0,1,0,11.864,17l4.08-4.08a1.054,1.054,0,0,0,0-1.448L11.864,7.4a1.024,1.024,0,1,0-1.448,1.448l2.346,2.336H5.02A1.02,1.02,0,0,0,4,12.2ZM17.259,2H7.06A3.06,3.06,0,0,0,4,5.06V8.12a1.02,1.02,0,1,0,2.04,0V5.06A1.02,1.02,0,0,1,7.06,4.04h10.2a1.02,1.02,0,0,1,1.02,1.02V19.339a1.02,1.02,0,0,1-1.02,1.02H7.06a1.02,1.02,0,0,1-1.02-1.02v-3.06a1.02,1.02,0,1,0-2.04,0v3.06A3.06,3.06,0,0,0,7.06,22.4h10.2a3.06,3.06,0,0,0,3.06-3.06V5.06A3.06,3.06,0,0,0,17.259,2Z" transform="translate(-4 -2)" fill="#888"/>
</svg>
