<svg xmlns="http://www.w3.org/2000/svg" width="24" height="20.075" viewBox="0 0 24 20.075">
  <path id="manage_accounts_FILL0_wght400_GRAD0_opsz48" d="M89.66,280.057a4.343,4.343,0,1,1,3.26-1.268A4.413,4.413,0,0,1,89.66,280.057ZM80,289.747v-2.838a3.514,3.514,0,0,1,.528-1.9,3.4,3.4,0,0,1,1.525-1.3,22.117,22.117,0,0,1,4.03-1.389,16.108,16.108,0,0,1,3.577-.423h.694a4.7,4.7,0,0,0-.272.83,8.894,8.894,0,0,0-.151.981H89.66a15,15,0,0,0-6.883,1.63,1.637,1.637,0,0,0-.725.679,1.824,1.824,0,0,0-.242.891v1.026h8.121a5.869,5.869,0,0,0,.362.981,4.737,4.737,0,0,0,.513.83Zm17.721,1.328-.3-1.992a5.357,5.357,0,0,1-1.042-.438,3.838,3.838,0,0,1-.891-.649l-1.66.362-.755-1.268,1.419-1.328a4.747,4.747,0,0,1,0-1.509l-1.419-1.328.755-1.268,1.66.362a3.837,3.837,0,0,1,.891-.649,5.355,5.355,0,0,1,1.042-.438l.3-1.992h1.63l.3,1.992a5.355,5.355,0,0,1,1.042.438,3.837,3.837,0,0,1,.891.649l1.66-.362.755,1.268-1.419,1.328a4.747,4.747,0,0,1,0,1.509L104,287.091l-.755,1.268-1.66-.362a3.838,3.838,0,0,1-.891.649,5.357,5.357,0,0,1-1.042.438l-.3,1.992Zm.815-3.653a2.282,2.282,0,1,0-1.751-.664A2.367,2.367,0,0,0,98.536,287.423Zm-8.875-9.177a2.633,2.633,0,1,0-1.947-.77A2.639,2.639,0,0,0,89.66,278.245ZM89.66,275.528ZM89.932,287.936Z" transform="translate(-80 -271)" fill="#fff"/>
</svg>
