<svg xmlns="http://www.w3.org/2000/svg" width="18.534" height="18.534" viewBox="0 0 18.534 18.534">
  <g id="Page-1" transform="translate(0)">
    <g id="Dribbble-Light-Preview" transform="translate(0)">
      <g id="icons">
        <path id="profile_round-_1342_" data-name="profile_round-[#1342]" d="M99.348,2015.68H87.186a.922.922,0,0,1-.891-1.24,7.785,7.785,0,0,1,13.944,0,.922.922,0,0,1-.891,1.24m-9.865-11.12a3.784,3.784,0,1,1,3.784,3.707,3.75,3.75,0,0,1-3.784-3.707m13.01,10.783a8.82,8.82,0,0,0-5.67-6.452,5.5,5.5,0,0,0,2.054-5.192,5.686,5.686,0,0,0-11.285.862,5.5,5.5,0,0,0,2.121,4.331,8.819,8.819,0,0,0-5.671,6.452,1.853,1.853,0,0,0,1.863,2.191H100.63a1.852,1.852,0,0,0,1.863-2.191" transform="translate(-84 -1999)" fill="#3d484b" fill-rule="evenodd"/>
      </g>
    </g>
  </g>
</svg>
