<svg xmlns="http://www.w3.org/2000/svg" width="13" height="13" viewBox="0 0 13 13">
  <path id="refresh_FILL0_wght400_GRAD0_opsz48" d="M166.5,269a6.5,6.5,0,1,1,3.027-12.3,7.168,7.168,0,0,1,2.255,1.92v-2.011a.609.609,0,1,1,1.219,0v3.941a.591.591,0,0,1-.609.609H168.45a.609.609,0,1,1,0-1.219h2.8a6.222,6.222,0,0,0-1.97-1.97,5.3,5.3,0,1,0-2.783,9.811,5.289,5.289,0,0,0,2.9-.843,5.2,5.2,0,0,0,1.97-2.265.749.749,0,0,1,.264-.284.655.655,0,0,1,.366-.122.559.559,0,0,1,.5.223.536.536,0,0,1,.03.528,6.313,6.313,0,0,1-2.387,2.895A6.444,6.444,0,0,1,166.5,269Z" transform="translate(-160 -256)" fill="#fc8019"/>
</svg>
