<?xml version="1.0" encoding="UTF-8" standalone="no"?>
<!DOCTYPE svg PUBLIC "-//W3C//DTD SVG 1.1//EN"
 "http://www.w3.org/Graphics/SVG/1.1/DTD/svg11.dtd">
<!-- Generated by graphviz version 2.47.0 (20210316.0004)
 -->
<!-- Title: dependencies Pages: 1 -->
<svg width="1692pt" height="284pt"
 viewBox="0.00 0.00 1692.00 284.00" xmlns="http://www.w3.org/2000/svg" xmlns:xlink="http://www.w3.org/1999/xlink">
<g id="graph0" class="graph" transform="scale(1 1) rotate(0) translate(4 280)">
<title>dependencies</title>
<polygon fill="white" stroke="transparent" points="-4,4 -4,-280 1688,-280 1688,4 -4,4"/>
<text text-anchor="start" x="821.01" y="-42.4" font-family="Times-12" font-weight="bold" font-size="14.00">Legend</text>
<polygon fill="#ffffb3" stroke="transparent" points="608,-10 608,-30 628,-30 628,-10 608,-10"/>
<text text-anchor="start" x="631.63" y="-15.4" font-family="Times-12" font-size="14.00"> &#160;Declarations</text>
<polygon fill="#8dd3c7" stroke="transparent" points="721,-10 721,-30 741,-30 741,-10 721,-10"/>
<text text-anchor="start" x="744.73" y="-15.4" font-family="Times-12" font-size="14.00"> &#160;Module</text>
<polygon fill="#80b1d3" stroke="transparent" points="807,-10 807,-30 827,-30 827,-10 807,-10"/>
<text text-anchor="start" x="830.78" y="-15.4" font-family="Times-12" font-size="14.00"> &#160;Bootstrap</text>
<polygon fill="#fdb462" stroke="transparent" points="904,-10 904,-30 924,-30 924,-10 904,-10"/>
<text text-anchor="start" x="927.67" y="-15.4" font-family="Times-12" font-size="14.00"> &#160;Providers</text>
<polygon fill="#fb8072" stroke="transparent" points="1000,-10 1000,-30 1020,-30 1020,-10 1000,-10"/>
<text text-anchor="start" x="1023.73" y="-15.4" font-family="Times-12" font-size="14.00"> &#160;Exports</text>
<g id="clust1" class="cluster">
<title>cluster_SharedModule</title>
<polygon fill="none" stroke="black" stroke-dasharray="1,5" points="8,-70 8,-268 1676,-268 1676,-70 8,-70"/>
</g>
<g id="clust14" class="cluster">
<title>cluster_SharedModule_exports</title>
<polygon fill="none" stroke="black" points="286,-208 286,-260 1299,-260 1299,-208 286,-208"/>
</g>
<g id="clust2" class="cluster">
<title>cluster_SharedModule_declarations</title>
<polygon fill="none" stroke="black" points="168,-78 168,-130 1668,-130 1668,-78 168,-78"/>
</g>
<g id="clust13" class="cluster">
<title>cluster_SharedModule_imports</title>
<polygon fill="none" stroke="black" points="16,-78 16,-130 160,-130 160,-78 16,-78"/>
</g>
<!-- AccordionComponent -->
<g id="node1" class="node">
<title>AccordionComponent</title>
<polygon fill="#ffffb3" stroke="black" points="1660.42,-122 1519.58,-122 1519.58,-86 1660.42,-86 1660.42,-122"/>
<text text-anchor="middle" x="1590" y="-99.8" font-family="Times,serif" font-size="14.00">AccordionComponent</text>
</g>
<!-- SharedModule -->
<g id="node11" class="node">
<title>SharedModule</title>
<polygon fill="#8dd3c7" stroke="black" points="850.42,-187 847.42,-191 826.42,-191 823.42,-187 751.58,-187 751.58,-151 850.42,-151 850.42,-187"/>
<text text-anchor="middle" x="801" y="-164.8" font-family="Times,serif" font-size="14.00">SharedModule</text>
</g>
<!-- AccordionComponent&#45;&gt;SharedModule -->
<g id="edge1" class="edge">
<title>AccordionComponent&#45;&gt;SharedModule</title>
<path fill="none" stroke="black" d="M1590,-122.31C1590,-142.15 1590,-171 1590,-171 1590,-171 860.36,-171 860.36,-171"/>
<polygon fill="black" stroke="black" points="860.36,-167.5 850.36,-171 860.36,-174.5 860.36,-167.5"/>
</g>
<!-- AddNewItemComponent -->
<g id="node2" class="node">
<title>AddNewItemComponent</title>
<polygon fill="#ffffb3" stroke="black" points="1501.52,-122 1344.48,-122 1344.48,-86 1501.52,-86 1501.52,-122"/>
<text text-anchor="middle" x="1423" y="-99.8" font-family="Times,serif" font-size="14.00">AddNewItemComponent</text>
</g>
<!-- AddNewItemComponent&#45;&gt;SharedModule -->
<g id="edge2" class="edge">
<title>AddNewItemComponent&#45;&gt;SharedModule</title>
<path fill="none" stroke="black" d="M1423,-122.22C1423,-140.83 1423,-167 1423,-167 1423,-167 860.33,-167 860.33,-167"/>
<polygon fill="black" stroke="black" points="860.33,-163.5 850.33,-167 860.33,-170.5 860.33,-163.5"/>
</g>
<!-- AddNewMenuComponent -->
<g id="node3" class="node">
<title>AddNewMenuComponent</title>
<polygon fill="#ffffb3" stroke="black" points="1326.03,-122 1161.97,-122 1161.97,-86 1326.03,-86 1326.03,-122"/>
<text text-anchor="middle" x="1244" y="-99.8" font-family="Times,serif" font-size="14.00">AddNewMenuComponent</text>
</g>
<!-- AddNewMenuComponent&#45;&gt;SharedModule -->
<g id="edge3" class="edge">
<title>AddNewMenuComponent&#45;&gt;SharedModule</title>
<path fill="none" stroke="black" d="M1226.35,-122.02C1226.35,-139.37 1226.35,-163 1226.35,-163 1226.35,-163 860.63,-163 860.63,-163"/>
<polygon fill="black" stroke="black" points="860.63,-159.5 850.63,-163 860.63,-166.5 860.63,-159.5"/>
</g>
<!-- AlertComponent -->
<g id="node4" class="node">
<title>AlertComponent</title>
<polygon fill="#ffffb3" stroke="black" points="1144.1,-122 1033.9,-122 1033.9,-86 1144.1,-86 1144.1,-122"/>
<text text-anchor="middle" x="1089" y="-99.8" font-family="Times,serif" font-size="14.00">AlertComponent</text>
</g>
<!-- AlertComponent&#45;&gt;SharedModule -->
<g id="edge4" class="edge">
<title>AlertComponent&#45;&gt;SharedModule</title>
<path fill="none" stroke="black" d="M1081.38,-122.01C1081.38,-138.05 1081.38,-159 1081.38,-159 1081.38,-159 860.48,-159 860.48,-159"/>
<polygon fill="black" stroke="black" points="860.48,-155.5 850.48,-159 860.48,-162.5 860.48,-155.5"/>
</g>
<!-- EditMenuComponent -->
<g id="node5" class="node">
<title>EditMenuComponent</title>
<polygon fill="#ffffb3" stroke="black" points="1015.83,-122 878.17,-122 878.17,-86 1015.83,-86 1015.83,-122"/>
<text text-anchor="middle" x="947" y="-99.8" font-family="Times,serif" font-size="14.00">EditMenuComponent</text>
</g>
<!-- EditMenuComponent&#45;&gt;SharedModule -->
<g id="edge5" class="edge">
<title>EditMenuComponent&#45;&gt;SharedModule</title>
<path fill="none" stroke="black" d="M918.12,-122.12C918.12,-136.78 918.12,-155 918.12,-155 918.12,-155 860.33,-155 860.33,-155"/>
<polygon fill="black" stroke="black" points="860.33,-151.5 850.33,-155 860.33,-158.5 860.33,-151.5"/>
</g>
<!-- FooterComponent -->
<g id="node6" class="node">
<title>FooterComponent</title>
<polygon fill="#ffffb3" stroke="black" points="859.88,-122 742.12,-122 742.12,-86 859.88,-86 859.88,-122"/>
<text text-anchor="middle" x="801" y="-99.8" font-family="Times,serif" font-size="14.00">FooterComponent</text>
</g>
<!-- FooterComponent&#45;&gt;SharedModule -->
<g id="edge6" class="edge">
<title>FooterComponent&#45;&gt;SharedModule</title>
<path fill="none" stroke="black" d="M801,-122.11C801,-122.11 801,-140.99 801,-140.99"/>
<polygon fill="black" stroke="black" points="797.5,-140.99 801,-150.99 804.5,-140.99 797.5,-140.99"/>
</g>
<!-- InputComponent -->
<g id="node7" class="node">
<title>InputComponent</title>
<polygon fill="#ffffb3" stroke="black" points="724.38,-122 613.62,-122 613.62,-86 724.38,-86 724.38,-122"/>
<text text-anchor="middle" x="669" y="-99.8" font-family="Times,serif" font-size="14.00">InputComponent</text>
</g>
<!-- InputComponent&#45;&gt;SharedModule -->
<g id="edge7" class="edge">
<title>InputComponent&#45;&gt;SharedModule</title>
<path fill="none" stroke="black" d="M687.48,-122.12C687.48,-136.78 687.48,-155 687.48,-155 687.48,-155 741.54,-155 741.54,-155"/>
<polygon fill="black" stroke="black" points="741.54,-158.5 751.54,-155 741.54,-151.5 741.54,-158.5"/>
</g>
<!-- ModalComponent -->
<g id="node8" class="node">
<title>ModalComponent</title>
<polygon fill="#ffffb3" stroke="black" points="595.88,-122 478.12,-122 478.12,-86 595.88,-86 595.88,-122"/>
<text text-anchor="middle" x="537" y="-99.8" font-family="Times,serif" font-size="14.00">ModalComponent</text>
</g>
<!-- ModalComponent&#45;&gt;SharedModule -->
<g id="edge8" class="edge">
<title>ModalComponent&#45;&gt;SharedModule</title>
<path fill="none" stroke="black" d="M591.12,-122.01C591.12,-138.05 591.12,-159 591.12,-159 591.12,-159 741.53,-159 741.53,-159"/>
<polygon fill="black" stroke="black" points="741.53,-162.5 751.53,-159 741.53,-155.5 741.53,-162.5"/>
</g>
<!-- TabComponent -->
<g id="node9" class="node">
<title>TabComponent</title>
<polygon fill="#ffffb3" stroke="black" points="460.6,-122 357.4,-122 357.4,-86 460.6,-86 460.6,-122"/>
<text text-anchor="middle" x="409" y="-99.8" font-family="Times,serif" font-size="14.00">TabComponent</text>
</g>
<!-- TabComponent&#45;&gt;SharedModule -->
<g id="edge9" class="edge">
<title>TabComponent&#45;&gt;SharedModule</title>
<path fill="none" stroke="black" d="M426.18,-122.02C426.18,-139.37 426.18,-163 426.18,-163 426.18,-163 741.61,-163 741.61,-163"/>
<polygon fill="black" stroke="black" points="741.61,-166.5 751.61,-163 741.61,-159.5 741.61,-166.5"/>
</g>
<!-- TabsContainerComponent -->
<g id="node10" class="node">
<title>TabsContainerComponent</title>
<polygon fill="#ffffb3" stroke="black" points="339.75,-122 176.25,-122 176.25,-86 339.75,-86 339.75,-122"/>
<text text-anchor="middle" x="258" y="-99.8" font-family="Times,serif" font-size="14.00">TabsContainerComponent</text>
</g>
<!-- TabsContainerComponent&#45;&gt;SharedModule -->
<g id="edge10" class="edge">
<title>TabsContainerComponent&#45;&gt;SharedModule</title>
<path fill="none" stroke="black" d="M317.12,-122.22C317.12,-140.83 317.12,-167 317.12,-167 317.12,-167 741.49,-167 741.49,-167"/>
<polygon fill="black" stroke="black" points="741.49,-170.5 751.49,-167 741.49,-163.5 741.49,-170.5"/>
</g>
<!-- AccordionComponent  -->
<g id="node13" class="node">
<title>AccordionComponent </title>
<polygon fill="#fb8072" stroke="black" points="1290.92,-252 1147.08,-252 1147.08,-216 1290.92,-216 1290.92,-252"/>
<text text-anchor="middle" x="1219" y="-229.8" font-family="Times,serif" font-size="14.00">AccordionComponent </text>
</g>
<!-- SharedModule&#45;&gt;AccordionComponent  -->
<g id="edge12" class="edge">
<title>SharedModule&#45;&gt;AccordionComponent </title>
<path fill="none" stroke="black" stroke-dasharray="5,2" d="M850.51,-175C947.77,-175 1154.39,-175 1154.39,-175 1154.39,-175 1154.39,-205.98 1154.39,-205.98"/>
<polygon fill="black" stroke="black" points="1150.89,-205.98 1154.39,-215.98 1157.89,-205.98 1150.89,-205.98"/>
</g>
<!-- AlertComponent  -->
<g id="node14" class="node">
<title>AlertComponent </title>
<polygon fill="#fb8072" stroke="black" points="1128.6,-252 1015.4,-252 1015.4,-216 1128.6,-216 1128.6,-252"/>
<text text-anchor="middle" x="1072" y="-229.8" font-family="Times,serif" font-size="14.00">AlertComponent </text>
</g>
<!-- SharedModule&#45;&gt;AlertComponent  -->
<g id="edge13" class="edge">
<title>SharedModule&#45;&gt;AlertComponent </title>
<path fill="none" stroke="black" stroke-dasharray="5,2" d="M850.39,-179C916.3,-179 1024.81,-179 1024.81,-179 1024.81,-179 1024.81,-205.99 1024.81,-205.99"/>
<polygon fill="black" stroke="black" points="1021.31,-205.99 1024.81,-215.99 1028.31,-205.99 1021.31,-205.99"/>
</g>
<!-- FooterComponent  -->
<g id="node15" class="node">
<title>FooterComponent </title>
<polygon fill="#fb8072" stroke="black" points="997.88,-252 876.12,-252 876.12,-216 997.88,-216 997.88,-252"/>
<text text-anchor="middle" x="937" y="-229.8" font-family="Times,serif" font-size="14.00">FooterComponent </text>
</g>
<!-- SharedModule&#45;&gt;FooterComponent  -->
<g id="edge14" class="edge">
<title>SharedModule&#45;&gt;FooterComponent </title>
<path fill="none" stroke="black" stroke-dasharray="5,2" d="M850.22,-183C896.23,-183 957.91,-183 957.91,-183 957.91,-183 957.91,-205.88 957.91,-205.88"/>
<polygon fill="black" stroke="black" points="954.41,-205.88 957.91,-215.88 961.41,-205.88 954.41,-205.88"/>
</g>
<!-- InputComponent  -->
<g id="node16" class="node">
<title>InputComponent </title>
<polygon fill="#fb8072" stroke="black" points="858.38,-252 743.62,-252 743.62,-216 858.38,-216 858.38,-252"/>
<text text-anchor="middle" x="801" y="-229.8" font-family="Times,serif" font-size="14.00">InputComponent </text>
</g>
<!-- SharedModule&#45;&gt;InputComponent  -->
<g id="edge15" class="edge">
<title>SharedModule&#45;&gt;InputComponent </title>
<path fill="none" stroke="black" stroke-dasharray="5,2" d="M801,-187.11C801,-187.11 801,-205.99 801,-205.99"/>
<polygon fill="black" stroke="black" points="797.5,-205.99 801,-215.99 804.5,-205.99 797.5,-205.99"/>
</g>
<!-- ModalComponent  -->
<g id="node17" class="node">
<title>ModalComponent </title>
<polygon fill="#fb8072" stroke="black" points="725.88,-252 604.12,-252 604.12,-216 725.88,-216 725.88,-252"/>
<text text-anchor="middle" x="665" y="-229.8" font-family="Times,serif" font-size="14.00">ModalComponent </text>
</g>
<!-- SharedModule&#45;&gt;ModalComponent  -->
<g id="edge16" class="edge">
<title>SharedModule&#45;&gt;ModalComponent </title>
<path fill="none" stroke="black" stroke-dasharray="5,2" d="M751.73,-183C707.84,-183 650.52,-183 650.52,-183 650.52,-183 650.52,-205.88 650.52,-205.88"/>
<polygon fill="black" stroke="black" points="647.02,-205.88 650.52,-215.88 654.02,-205.88 647.02,-205.88"/>
</g>
<!-- TabComponent  -->
<g id="node18" class="node">
<title>TabComponent </title>
<polygon fill="#fb8072" stroke="black" points="586.1,-252 479.9,-252 479.9,-216 586.1,-216 586.1,-252"/>
<text text-anchor="middle" x="533" y="-229.8" font-family="Times,serif" font-size="14.00">TabComponent </text>
</g>
<!-- SharedModule&#45;&gt;TabComponent  -->
<g id="edge17" class="edge">
<title>SharedModule&#45;&gt;TabComponent </title>
<path fill="none" stroke="black" stroke-dasharray="5,2" d="M751.53,-179C674.1,-179 533,-179 533,-179 533,-179 533,-205.99 533,-205.99"/>
<polygon fill="black" stroke="black" points="529.5,-205.99 533,-215.99 536.5,-205.99 529.5,-205.99"/>
</g>
<!-- TabsContainerComponent  -->
<g id="node19" class="node">
<title>TabsContainerComponent </title>
<polygon fill="#fb8072" stroke="black" points="461.75,-252 294.25,-252 294.25,-216 461.75,-216 461.75,-252"/>
<text text-anchor="middle" x="378" y="-229.8" font-family="Times,serif" font-size="14.00">TabsContainerComponent </text>
</g>
<!-- SharedModule&#45;&gt;TabsContainerComponent  -->
<g id="edge18" class="edge">
<title>SharedModule&#45;&gt;TabsContainerComponent </title>
<path fill="none" stroke="black" stroke-dasharray="5,2" d="M751.64,-175C642.81,-175 391.82,-175 391.82,-175 391.82,-175 391.82,-205.98 391.82,-205.98"/>
<polygon fill="black" stroke="black" points="388.32,-205.98 391.82,-215.98 395.32,-205.98 388.32,-205.98"/>
</g>
<!-- AppRoutingModule -->
<g id="node12" class="node">
<title>AppRoutingModule</title>
<polygon fill="#8dd3c7" stroke="black" points="152.27,-122 149.27,-126 128.27,-126 125.27,-122 23.73,-122 23.73,-86 152.27,-86 152.27,-122"/>
<text text-anchor="middle" x="88" y="-99.8" font-family="Times,serif" font-size="14.00">AppRoutingModule</text>
</g>
<!-- AppRoutingModule&#45;&gt;SharedModule -->
<g id="edge11" class="edge">
<title>AppRoutingModule&#45;&gt;SharedModule</title>
<path fill="none" stroke="black" d="M88,-122.31C88,-142.15 88,-171 88,-171 88,-171 741.71,-171 741.71,-171"/>
<polygon fill="black" stroke="black" points="741.71,-174.5 751.71,-171 741.71,-167.5 741.71,-174.5"/>
</g>
</g>
</svg>
