<?xml version="1.0" encoding="UTF-8" standalone="no"?>
<!DOCTYPE svg PUBLIC "-//W3C//DTD SVG 1.1//EN"
 "http://www.w3.org/Graphics/SVG/1.1/DTD/svg11.dtd">
<!-- Generated by graphviz version 5.0.0 (20220707.1540)
 -->
<!-- Title: dependencies Pages: 1 -->
<svg width="752pt" height="247pt"
 viewBox="0.00 0.00 752.00 246.80" xmlns="http://www.w3.org/2000/svg" xmlns:xlink="http://www.w3.org/1999/xlink">
<g id="graph0" class="graph" transform="scale(1 1) rotate(0) translate(4 242.8)">
<title>dependencies</title>
<polygon fill="white" stroke="transparent" points="-4,4 -4,-242.8 748,-242.8 748,4 -4,4"/>
<text text-anchor="middle" x="372" y="-8.2" font-family="sans-serif" font-size="14.00">dependencies</text>
<g id="clust1" class="cluster">
<title>cluster_SharedModule</title>
<polygon fill="none" stroke="black" stroke-dasharray="1,5" points="8,-32.8 8,-230.8 736,-230.8 736,-32.8 8,-32.8"/>
</g>
<g id="clust9" class="cluster">
<title>cluster_SharedModule_exports</title>
<polygon fill="none" stroke="black" points="16,-170.8 16,-222.8 728,-222.8 728,-170.8 16,-170.8"/>
</g>
<g id="clust2" class="cluster">
<title>cluster_SharedModule_declarations</title>
<polygon fill="none" stroke="black" points="26,-40.8 26,-92.8 718,-92.8 718,-40.8 26,-40.8"/>
</g>
<!-- AlertComponent -->
<g id="node1" class="node">
<title>AlertComponent</title>
<polygon fill="#ffffb3" stroke="black" points="710.1,-84.8 599.9,-84.8 599.9,-48.8 710.1,-48.8 710.1,-84.8"/>
<text text-anchor="middle" x="655" y="-62.6" font-family="Times,serif" font-size="14.00">AlertComponent</text>
</g>
<!-- SharedModule -->
<g id="node6" class="node">
<title>SharedModule</title>
<polygon fill="#8dd3c7" stroke="black" points="444.43,-149.8 441.43,-153.8 420.43,-153.8 417.43,-149.8 345.57,-149.8 345.57,-113.8 444.43,-113.8 444.43,-149.8"/>
<text text-anchor="middle" x="395" y="-127.6" font-family="Times,serif" font-size="14.00">SharedModule</text>
</g>
<!-- AlertComponent&#45;&gt;SharedModule -->
<g id="edge1" class="edge">
<title>AlertComponent&#45;&gt;SharedModule</title>
<path fill="none" stroke="black" d="M675.43,-85.07C675.43,-103.36 675.43,-128.8 675.43,-128.8 675.43,-128.8 454.49,-128.8 454.49,-128.8"/>
<polygon fill="black" stroke="black" points="454.49,-125.3 444.49,-128.8 454.49,-132.3 454.49,-125.3"/>
</g>
<!-- InputComponent -->
<g id="node2" class="node">
<title>InputComponent</title>
<polygon fill="#ffffb3" stroke="black" points="582.38,-84.8 471.62,-84.8 471.62,-48.8 582.38,-48.8 582.38,-84.8"/>
<text text-anchor="middle" x="527" y="-62.6" font-family="Times,serif" font-size="14.00">InputComponent</text>
</g>
<!-- InputComponent&#45;&gt;SharedModule -->
<g id="edge2" class="edge">
<title>InputComponent&#45;&gt;SharedModule</title>
<path fill="none" stroke="black" d="M546.23,-84.81C546.23,-100.85 546.23,-121.8 546.23,-121.8 546.23,-121.8 454.52,-121.8 454.52,-121.8"/>
<polygon fill="black" stroke="black" points="454.52,-118.3 444.52,-121.8 454.52,-125.3 454.52,-118.3"/>
</g>
<!-- ModalComponent -->
<g id="node3" class="node">
<title>ModalComponent</title>
<polygon fill="#ffffb3" stroke="black" points="453.88,-84.8 336.12,-84.8 336.12,-48.8 453.88,-48.8 453.88,-84.8"/>
<text text-anchor="middle" x="395" y="-62.6" font-family="Times,serif" font-size="14.00">ModalComponent</text>
</g>
<!-- ModalComponent&#45;&gt;SharedModule -->
<g id="edge3" class="edge">
<title>ModalComponent&#45;&gt;SharedModule</title>
<path fill="none" stroke="black" d="M395,-84.91C395,-84.91 395,-103.79 395,-103.79"/>
<polygon fill="black" stroke="black" points="391.5,-103.79 395,-113.79 398.5,-103.79 391.5,-103.79"/>
</g>
<!-- TabComponent -->
<g id="node4" class="node">
<title>TabComponent</title>
<polygon fill="#ffffb3" stroke="black" points="318.6,-84.8 215.4,-84.8 215.4,-48.8 318.6,-48.8 318.6,-84.8"/>
<text text-anchor="middle" x="267" y="-62.6" font-family="Times,serif" font-size="14.00">TabComponent</text>
</g>
<!-- TabComponent&#45;&gt;SharedModule -->
<g id="edge4" class="edge">
<title>TabComponent&#45;&gt;SharedModule</title>
<path fill="none" stroke="black" d="M282.68,-84.81C282.68,-100.85 282.68,-121.8 282.68,-121.8 282.68,-121.8 335.74,-121.8 335.74,-121.8"/>
<polygon fill="black" stroke="black" points="335.74,-125.3 345.74,-121.8 335.74,-118.3 335.74,-125.3"/>
</g>
<!-- TabsContainerComponent -->
<g id="node5" class="node">
<title>TabsContainerComponent</title>
<polygon fill="#ffffb3" stroke="black" points="197.75,-84.8 34.25,-84.8 34.25,-48.8 197.75,-48.8 197.75,-84.8"/>
<text text-anchor="middle" x="116" y="-62.6" font-family="Times,serif" font-size="14.00">TabsContainerComponent</text>
</g>
<!-- TabsContainerComponent&#45;&gt;SharedModule -->
<g id="edge5" class="edge">
<title>TabsContainerComponent&#45;&gt;SharedModule</title>
<path fill="none" stroke="black" d="M139.13,-85.07C139.13,-103.36 139.13,-128.8 139.13,-128.8 139.13,-128.8 335.66,-128.8 335.66,-128.8"/>
<polygon fill="black" stroke="black" points="335.66,-132.3 345.66,-128.8 335.66,-125.3 335.66,-132.3"/>
</g>
<!-- AlertComponent  -->
<g id="node7" class="node">
<title>AlertComponent </title>
<polygon fill="#fb8072" stroke="black" points="719.6,-214.8 606.4,-214.8 606.4,-178.8 719.6,-178.8 719.6,-214.8"/>
<text text-anchor="middle" x="663" y="-192.6" font-family="Times,serif" font-size="14.00">AlertComponent </text>
</g>
<!-- SharedModule&#45;&gt;AlertComponent  -->
<g id="edge6" class="edge">
<title>SharedModule&#45;&gt;AlertComponent </title>
<path fill="none" stroke="black" stroke-dasharray="5,2" d="M444.45,-135.8C516.23,-135.8 640.82,-135.8 640.82,-135.8 640.82,-135.8 640.82,-168.5 640.82,-168.5"/>
<polygon fill="black" stroke="black" points="637.32,-168.5 640.82,-178.5 644.32,-168.5 637.32,-168.5"/>
</g>
<!-- InputComponent  -->
<g id="node8" class="node">
<title>InputComponent </title>
<polygon fill="#fb8072" stroke="black" points="588.38,-214.8 473.62,-214.8 473.62,-178.8 588.38,-178.8 588.38,-214.8"/>
<text text-anchor="middle" x="531" y="-192.6" font-family="Times,serif" font-size="14.00">InputComponent </text>
</g>
<!-- SharedModule&#45;&gt;InputComponent  -->
<g id="edge7" class="edge">
<title>SharedModule&#45;&gt;InputComponent </title>
<path fill="none" stroke="black" stroke-dasharray="5,2" d="M444.45,-142.8C475.62,-142.8 510.02,-142.8 510.02,-142.8 510.02,-142.8 510.02,-168.52 510.02,-168.52"/>
<polygon fill="black" stroke="black" points="506.52,-168.52 510.02,-178.52 513.52,-168.52 506.52,-168.52"/>
</g>
<!-- ModalComponent  -->
<g id="node9" class="node">
<title>ModalComponent </title>
<polygon fill="#fb8072" stroke="black" points="455.88,-214.8 334.12,-214.8 334.12,-178.8 455.88,-178.8 455.88,-214.8"/>
<text text-anchor="middle" x="395" y="-192.6" font-family="Times,serif" font-size="14.00">ModalComponent </text>
</g>
<!-- SharedModule&#45;&gt;ModalComponent  -->
<g id="edge8" class="edge">
<title>SharedModule&#45;&gt;ModalComponent </title>
<path fill="none" stroke="black" stroke-dasharray="5,2" d="M395,-149.91C395,-149.91 395,-168.79 395,-168.79"/>
<polygon fill="black" stroke="black" points="391.5,-168.79 395,-178.79 398.5,-168.79 391.5,-168.79"/>
</g>
<!-- TabComponent  -->
<g id="node10" class="node">
<title>TabComponent </title>
<polygon fill="#fb8072" stroke="black" points="316.1,-214.8 209.9,-214.8 209.9,-178.8 316.1,-178.8 316.1,-214.8"/>
<text text-anchor="middle" x="263" y="-192.6" font-family="Times,serif" font-size="14.00">TabComponent </text>
</g>
<!-- SharedModule&#45;&gt;TabComponent  -->
<g id="edge9" class="edge">
<title>SharedModule&#45;&gt;TabComponent </title>
<path fill="none" stroke="black" stroke-dasharray="5,2" d="M345.59,-142.8C303.26,-142.8 249.07,-142.8 249.07,-142.8 249.07,-142.8 249.07,-168.52 249.07,-168.52"/>
<polygon fill="black" stroke="black" points="245.57,-168.52 249.07,-178.52 252.57,-168.52 245.57,-168.52"/>
</g>
<!-- TabsContainerComponent  -->
<g id="node11" class="node">
<title>TabsContainerComponent </title>
<polygon fill="#fb8072" stroke="black" points="191.75,-214.8 24.25,-214.8 24.25,-178.8 191.75,-178.8 191.75,-214.8"/>
<text text-anchor="middle" x="108" y="-192.6" font-family="Times,serif" font-size="14.00">TabsContainerComponent </text>
</g>
<!-- SharedModule&#45;&gt;TabsContainerComponent  -->
<g id="edge10" class="edge">
<title>SharedModule&#45;&gt;TabsContainerComponent </title>
<path fill="none" stroke="black" stroke-dasharray="5,2" d="M345.45,-135.8C258.28,-135.8 86.62,-135.8 86.62,-135.8 86.62,-135.8 86.62,-168.5 86.62,-168.5"/>
<polygon fill="black" stroke="black" points="83.12,-168.5 86.62,-178.5 90.12,-168.5 83.12,-168.5"/>
</g>
</g>
</svg>
