<?xml version="1.0" encoding="UTF-8" standalone="no"?>
<!DOCTYPE svg PUBLIC "-//W3C//DTD SVG 1.1//EN"
 "http://www.w3.org/Graphics/SVG/1.1/DTD/svg11.dtd">
<!-- Generated by graphviz version 5.0.0 (20220707.1540)
 -->
<!-- Title: dependencies Pages: 1 -->
<svg width="718pt" height="247pt"
 viewBox="0.00 0.00 718.00 246.80" xmlns="http://www.w3.org/2000/svg" xmlns:xlink="http://www.w3.org/1999/xlink">
<g id="graph0" class="graph" transform="scale(1 1) rotate(0) translate(4 242.8)">
<title>dependencies</title>
<polygon fill="white" stroke="transparent" points="-4,4 -4,-242.8 714,-242.8 714,4 -4,4"/>
<text text-anchor="middle" x="355" y="-8.2" font-family="sans-serif" font-size="14.00">dependencies</text>
<g id="clust1" class="cluster">
<title>cluster_DashboardModule</title>
<polygon fill="none" stroke="black" stroke-dasharray="1,5" points="8,-32.8 8,-230.8 702,-230.8 702,-32.8 8,-32.8"/>
</g>
<g id="clust2" class="cluster">
<title>cluster_DashboardModule_declarations</title>
<polygon fill="none" stroke="black" points="16,-40.8 16,-92.8 694,-92.8 694,-40.8 16,-40.8"/>
</g>
<g id="clust8" class="cluster">
<title>cluster_DashboardModule_exports</title>
<polygon fill="none" stroke="black" points="252,-170.8 252,-222.8 450,-222.8 450,-170.8 252,-170.8"/>
</g>
<!-- ChartCardComponent -->
<g id="node1" class="node">
<title>ChartCardComponent</title>
<polygon fill="#ffffb3" stroke="black" points="685.65,-84.8 546.35,-84.8 546.35,-48.8 685.65,-48.8 685.65,-84.8"/>
<text text-anchor="middle" x="616" y="-62.6" font-family="Times,serif" font-size="14.00">ChartCardComponent</text>
</g>
<!-- DashboardModule -->
<g id="node5" class="node">
<title>DashboardModule</title>
<polygon fill="#8dd3c7" stroke="black" points="411.2,-149.8 408.2,-153.8 387.2,-153.8 384.2,-149.8 290.8,-149.8 290.8,-113.8 411.2,-113.8 411.2,-149.8"/>
<text text-anchor="middle" x="351" y="-127.6" font-family="Times,serif" font-size="14.00">DashboardModule</text>
</g>
<!-- ChartCardComponent&#45;&gt;DashboardModule -->
<g id="edge1" class="edge">
<title>ChartCardComponent&#45;&gt;DashboardModule</title>
<path fill="none" stroke="black" d="M616,-84.91C616,-104.14 616,-131.8 616,-131.8 616,-131.8 421.13,-131.8 421.13,-131.8"/>
<polygon fill="black" stroke="black" points="421.13,-128.3 411.13,-131.8 421.13,-135.3 421.13,-128.3"/>
</g>
<!-- DashboardModalComponent -->
<g id="node2" class="node">
<title>DashboardModalComponent</title>
<polygon fill="#ffffb3" stroke="black" points="528.03,-84.8 349.97,-84.8 349.97,-48.8 528.03,-48.8 528.03,-84.8"/>
<text text-anchor="middle" x="439" y="-62.6" font-family="Times,serif" font-size="14.00">DashboardModalComponent</text>
</g>
<!-- DashboardModalComponent&#45;&gt;DashboardModule -->
<g id="edge2" class="edge">
<title>DashboardModalComponent&#45;&gt;DashboardModule</title>
<path fill="none" stroke="black" d="M380.42,-84.91C380.42,-84.91 380.42,-103.79 380.42,-103.79"/>
<polygon fill="black" stroke="black" points="376.92,-103.79 380.42,-113.79 383.92,-103.79 376.92,-103.79"/>
</g>
<!-- FoodCardComponent -->
<g id="node3" class="node">
<title>FoodCardComponent</title>
<polygon fill="#ffffb3" stroke="black" points="331.83,-84.8 194.17,-84.8 194.17,-48.8 331.83,-48.8 331.83,-84.8"/>
<text text-anchor="middle" x="263" y="-62.6" font-family="Times,serif" font-size="14.00">FoodCardComponent</text>
</g>
<!-- FoodCardComponent&#45;&gt;DashboardModule -->
<g id="edge3" class="edge">
<title>FoodCardComponent&#45;&gt;DashboardModule</title>
<path fill="none" stroke="black" d="M311.28,-84.91C311.28,-84.91 311.28,-103.79 311.28,-103.79"/>
<polygon fill="black" stroke="black" points="307.78,-103.79 311.28,-113.79 314.78,-103.79 307.78,-103.79"/>
</g>
<!-- FoodSectionComponent -->
<g id="node4" class="node">
<title>FoodSectionComponent</title>
<polygon fill="#ffffb3" stroke="black" points="176.11,-84.8 23.89,-84.8 23.89,-48.8 176.11,-48.8 176.11,-84.8"/>
<text text-anchor="middle" x="100" y="-62.6" font-family="Times,serif" font-size="14.00">FoodSectionComponent</text>
</g>
<!-- FoodSectionComponent&#45;&gt;DashboardModule -->
<g id="edge4" class="edge">
<title>FoodSectionComponent&#45;&gt;DashboardModule</title>
<path fill="none" stroke="black" d="M100,-84.91C100,-104.14 100,-131.8 100,-131.8 100,-131.8 280.88,-131.8 280.88,-131.8"/>
<polygon fill="black" stroke="black" points="280.88,-135.3 290.88,-131.8 280.88,-128.3 280.88,-135.3"/>
</g>
<!-- DashboardModalComponent  -->
<g id="node6" class="node">
<title>DashboardModalComponent </title>
<polygon fill="#fb8072" stroke="black" points="442.03,-214.8 259.97,-214.8 259.97,-178.8 442.03,-178.8 442.03,-214.8"/>
<text text-anchor="middle" x="351" y="-192.6" font-family="Times,serif" font-size="14.00">DashboardModalComponent </text>
</g>
<!-- DashboardModule&#45;&gt;DashboardModalComponent  -->
<g id="edge5" class="edge">
<title>DashboardModule&#45;&gt;DashboardModalComponent </title>
<path fill="none" stroke="black" stroke-dasharray="5,2" d="M351,-149.91C351,-149.91 351,-168.79 351,-168.79"/>
<polygon fill="black" stroke="black" points="347.5,-168.79 351,-178.79 354.5,-168.79 347.5,-168.79"/>
</g>
</g>
</svg>
