<?xml version="1.0" encoding="UTF-8" standalone="no"?>
<!DOCTYPE svg PUBLIC "-//W3C//DTD SVG 1.1//EN"
 "http://www.w3.org/Graphics/SVG/1.1/DTD/svg11.dtd">
<!-- Generated by graphviz version 2.47.0 (20210316.0004)
 -->
<!-- Title: dependencies Pages: 1 -->
<svg width="1678pt" height="284pt"
 viewBox="0.00 0.00 1678.00 284.00" xmlns="http://www.w3.org/2000/svg" xmlns:xlink="http://www.w3.org/1999/xlink">
<g id="graph0" class="graph" transform="scale(1 1) rotate(0) translate(4 280)">
<title>dependencies</title>
<polygon fill="white" stroke="transparent" points="-4,4 -4,-280 1674,-280 1674,4 -4,4"/>
<text text-anchor="start" x="814.01" y="-42.4" font-family="Times-12" font-weight="bold" font-size="14.00">Legend</text>
<polygon fill="#ffffb3" stroke="transparent" points="601,-10 601,-30 621,-30 621,-10 601,-10"/>
<text text-anchor="start" x="624.63" y="-15.4" font-family="Times-12" font-size="14.00"> &#160;Declarations</text>
<polygon fill="#8dd3c7" stroke="transparent" points="714,-10 714,-30 734,-30 734,-10 714,-10"/>
<text text-anchor="start" x="737.73" y="-15.4" font-family="Times-12" font-size="14.00"> &#160;Module</text>
<polygon fill="#80b1d3" stroke="transparent" points="800,-10 800,-30 820,-30 820,-10 800,-10"/>
<text text-anchor="start" x="823.78" y="-15.4" font-family="Times-12" font-size="14.00"> &#160;Bootstrap</text>
<polygon fill="#fdb462" stroke="transparent" points="897,-10 897,-30 917,-30 917,-10 897,-10"/>
<text text-anchor="start" x="920.67" y="-15.4" font-family="Times-12" font-size="14.00"> &#160;Providers</text>
<polygon fill="#fb8072" stroke="transparent" points="993,-10 993,-30 1013,-30 1013,-10 993,-10"/>
<text text-anchor="start" x="1016.73" y="-15.4" font-family="Times-12" font-size="14.00"> &#160;Exports</text>
<g id="clust1" class="cluster">
<title>cluster_DashboardModule</title>
<polygon fill="none" stroke="black" stroke-dasharray="1,5" points="8,-70 8,-268 1662,-268 1662,-70 8,-70"/>
</g>
<g id="clust2" class="cluster">
<title>cluster_DashboardModule_declarations</title>
<polygon fill="none" stroke="black" points="322,-78 322,-130 1654,-130 1654,-78 322,-78"/>
</g>
<g id="clust11" class="cluster">
<title>cluster_DashboardModule_imports</title>
<polygon fill="none" stroke="black" points="16,-78 16,-130 314,-130 314,-78 16,-78"/>
</g>
<g id="clust12" class="cluster">
<title>cluster_DashboardModule_exports</title>
<polygon fill="none" stroke="black" points="645,-208 645,-260 969,-260 969,-208 645,-208"/>
</g>
<!-- ChartCardComponent -->
<g id="node1" class="node">
<title>ChartCardComponent</title>
<polygon fill="#ffffb3" stroke="black" points="1645.65,-122 1506.35,-122 1506.35,-86 1645.65,-86 1645.65,-122"/>
<text text-anchor="middle" x="1576" y="-99.8" font-family="Times,serif" font-size="14.00">ChartCardComponent</text>
</g>
<!-- DashboardModule -->
<g id="node9" class="node">
<title>DashboardModule</title>
<polygon fill="#8dd3c7" stroke="black" points="848.19,-187 845.19,-191 824.19,-191 821.19,-187 727.81,-187 727.81,-151 848.19,-151 848.19,-187"/>
<text text-anchor="middle" x="788" y="-164.8" font-family="Times,serif" font-size="14.00">DashboardModule</text>
</g>
<!-- ChartCardComponent&#45;&gt;DashboardModule -->
<g id="edge1" class="edge">
<title>ChartCardComponent&#45;&gt;DashboardModule</title>
<path fill="none" stroke="black" d="M1576,-122.01C1576,-144.49 1576,-180 1576,-180 1576,-180 858.2,-180 858.2,-180"/>
<polygon fill="black" stroke="black" points="858.2,-176.5 848.2,-180 858.2,-183.5 858.2,-176.5"/>
</g>
<!-- DashboardModalComponent -->
<g id="node2" class="node">
<title>DashboardModalComponent</title>
<polygon fill="#ffffb3" stroke="black" points="1488.02,-122 1309.98,-122 1309.98,-86 1488.02,-86 1488.02,-122"/>
<text text-anchor="middle" x="1399" y="-99.8" font-family="Times,serif" font-size="14.00">DashboardModalComponent</text>
</g>
<!-- DashboardModalComponent&#45;&gt;DashboardModule -->
<g id="edge2" class="edge">
<title>DashboardModalComponent&#45;&gt;DashboardModule</title>
<path fill="none" stroke="black" d="M1399,-122.13C1399,-142.57 1399,-173 1399,-173 1399,-173 858.26,-173 858.26,-173"/>
<polygon fill="black" stroke="black" points="858.26,-169.5 848.26,-173 858.26,-176.5 858.26,-169.5"/>
</g>
<!-- DayToggleButtonComponent -->
<g id="node3" class="node">
<title>DayToggleButtonComponent</title>
<polygon fill="#ffffb3" stroke="black" points="1292.43,-122 1109.57,-122 1109.57,-86 1292.43,-86 1292.43,-122"/>
<text text-anchor="middle" x="1201" y="-99.8" font-family="Times,serif" font-size="14.00">DayToggleButtonComponent</text>
</g>
<!-- DayToggleButtonComponent&#45;&gt;DashboardModule -->
<g id="edge3" class="edge">
<title>DayToggleButtonComponent&#45;&gt;DashboardModule</title>
<path fill="none" stroke="black" d="M1201,-122.27C1201,-140.56 1201,-166 1201,-166 1201,-166 858.5,-166 858.5,-166"/>
<polygon fill="black" stroke="black" points="858.5,-162.5 848.5,-166 858.5,-169.5 858.5,-162.5"/>
</g>
<!-- FoodCardComponent -->
<g id="node4" class="node">
<title>FoodCardComponent</title>
<polygon fill="#ffffb3" stroke="black" points="1091.83,-122 954.17,-122 954.17,-86 1091.83,-86 1091.83,-122"/>
<text text-anchor="middle" x="1023" y="-99.8" font-family="Times,serif" font-size="14.00">FoodCardComponent</text>
</g>
<!-- FoodCardComponent&#45;&gt;DashboardModule -->
<g id="edge4" class="edge">
<title>FoodCardComponent&#45;&gt;DashboardModule</title>
<path fill="none" stroke="black" d="M1026.34,-122.01C1026.34,-138.05 1026.34,-159 1026.34,-159 1026.34,-159 858.14,-159 858.14,-159"/>
<polygon fill="black" stroke="black" points="858.14,-155.5 848.14,-159 858.14,-162.5 858.14,-155.5"/>
</g>
<!-- FoodPostComponent -->
<g id="node5" class="node">
<title>FoodPostComponent</title>
<polygon fill="#ffffb3" stroke="black" points="936.23,-122 801.77,-122 801.77,-86 936.23,-86 936.23,-122"/>
<text text-anchor="middle" x="869" y="-99.8" font-family="Times,serif" font-size="14.00">FoodPostComponent</text>
</g>
<!-- FoodPostComponent&#45;&gt;DashboardModule -->
<g id="edge5" class="edge">
<title>FoodPostComponent&#45;&gt;DashboardModule</title>
<path fill="none" stroke="black" d="M824.99,-122.11C824.99,-122.11 824.99,-140.99 824.99,-140.99"/>
<polygon fill="black" stroke="black" points="821.49,-140.99 824.99,-150.99 828.49,-140.99 821.49,-140.99"/>
</g>
<!-- FoodSectionComponent -->
<g id="node6" class="node">
<title>FoodSectionComponent</title>
<polygon fill="#ffffb3" stroke="black" points="784.11,-122 631.89,-122 631.89,-86 784.11,-86 784.11,-122"/>
<text text-anchor="middle" x="708" y="-99.8" font-family="Times,serif" font-size="14.00">FoodSectionComponent</text>
</g>
<!-- FoodSectionComponent&#45;&gt;DashboardModule -->
<g id="edge6" class="edge">
<title>FoodSectionComponent&#45;&gt;DashboardModule</title>
<path fill="none" stroke="black" d="M755.98,-122.11C755.98,-122.11 755.98,-140.99 755.98,-140.99"/>
<polygon fill="black" stroke="black" points="752.48,-140.99 755.98,-150.99 759.48,-140.99 752.48,-140.99"/>
</g>
<!-- NavComponent -->
<g id="node7" class="node">
<title>NavComponent</title>
<polygon fill="#ffffb3" stroke="black" points="614.15,-122 509.85,-122 509.85,-86 614.15,-86 614.15,-122"/>
<text text-anchor="middle" x="562" y="-99.8" font-family="Times,serif" font-size="14.00">NavComponent</text>
</g>
<!-- NavComponent&#45;&gt;DashboardModule -->
<g id="edge7" class="edge">
<title>NavComponent&#45;&gt;DashboardModule</title>
<path fill="none" stroke="black" d="M562,-122.01C562,-138.05 562,-159 562,-159 562,-159 717.73,-159 717.73,-159"/>
<polygon fill="black" stroke="black" points="717.73,-162.5 727.73,-159 717.73,-155.5 717.73,-162.5"/>
</g>
<!-- WelcomeCardComponent -->
<g id="node8" class="node">
<title>WelcomeCardComponent</title>
<polygon fill="#ffffb3" stroke="black" points="492.18,-122 329.82,-122 329.82,-86 492.18,-86 492.18,-122"/>
<text text-anchor="middle" x="411" y="-99.8" font-family="Times,serif" font-size="14.00">WelcomeCardComponent</text>
</g>
<!-- WelcomeCardComponent&#45;&gt;DashboardModule -->
<g id="edge8" class="edge">
<title>WelcomeCardComponent&#45;&gt;DashboardModule</title>
<path fill="none" stroke="black" d="M411,-122.27C411,-140.56 411,-166 411,-166 411,-166 717.85,-166 717.85,-166"/>
<polygon fill="black" stroke="black" points="717.85,-169.5 727.85,-166 717.85,-162.5 717.85,-169.5"/>
</g>
<!-- DashboardModalComponent  -->
<g id="node12" class="node">
<title>DashboardModalComponent </title>
<polygon fill="#fb8072" stroke="black" points="961.02,-252 778.98,-252 778.98,-216 961.02,-216 961.02,-252"/>
<text text-anchor="middle" x="870" y="-229.8" font-family="Times,serif" font-size="14.00">DashboardModalComponent </text>
</g>
<!-- DashboardModule&#45;&gt;DashboardModalComponent  -->
<g id="edge11" class="edge">
<title>DashboardModule&#45;&gt;DashboardModalComponent </title>
<path fill="none" stroke="black" stroke-dasharray="5,2" d="M813.54,-187.11C813.54,-187.11 813.54,-205.99 813.54,-205.99"/>
<polygon fill="black" stroke="black" points="810.04,-205.99 813.54,-215.99 817.04,-205.99 810.04,-205.99"/>
</g>
<!-- NavComponent  -->
<g id="node13" class="node">
<title>NavComponent </title>
<polygon fill="#fb8072" stroke="black" points="761.15,-252 652.85,-252 652.85,-216 761.15,-216 761.15,-252"/>
<text text-anchor="middle" x="707" y="-229.8" font-family="Times,serif" font-size="14.00">NavComponent </text>
</g>
<!-- DashboardModule&#45;&gt;NavComponent  -->
<g id="edge12" class="edge">
<title>DashboardModule&#45;&gt;NavComponent </title>
<path fill="none" stroke="black" stroke-dasharray="5,2" d="M744.49,-187.11C744.49,-187.11 744.49,-205.99 744.49,-205.99"/>
<polygon fill="black" stroke="black" points="740.99,-205.99 744.49,-215.99 747.99,-205.99 740.99,-205.99"/>
</g>
<!-- DashboardRoutingModule -->
<g id="node10" class="node">
<title>DashboardRoutingModule</title>
<polygon fill="#8dd3c7" stroke="black" points="305.81,-122 302.81,-126 281.81,-126 278.81,-122 140.19,-122 140.19,-86 305.81,-86 305.81,-122"/>
<text text-anchor="middle" x="223" y="-99.8" font-family="Times,serif" font-size="14.00">DashboardRoutingModule</text>
</g>
<!-- DashboardRoutingModule&#45;&gt;DashboardModule -->
<g id="edge9" class="edge">
<title>DashboardRoutingModule&#45;&gt;DashboardModule</title>
<path fill="none" stroke="black" d="M223,-122.13C223,-142.57 223,-173 223,-173 223,-173 717.8,-173 717.8,-173"/>
<polygon fill="black" stroke="black" points="717.8,-176.5 727.8,-173 717.8,-169.5 717.8,-176.5"/>
</g>
<!-- SharedModule -->
<g id="node11" class="node">
<title>SharedModule</title>
<polygon fill="#8dd3c7" stroke="black" points="122.42,-122 119.42,-126 98.42,-126 95.42,-122 23.58,-122 23.58,-86 122.42,-86 122.42,-122"/>
<text text-anchor="middle" x="73" y="-99.8" font-family="Times,serif" font-size="14.00">SharedModule</text>
</g>
<!-- SharedModule&#45;&gt;DashboardModule -->
<g id="edge10" class="edge">
<title>SharedModule&#45;&gt;DashboardModule</title>
<path fill="none" stroke="black" d="M73,-122.01C73,-144.49 73,-180 73,-180 73,-180 717.66,-180 717.66,-180"/>
<polygon fill="black" stroke="black" points="717.66,-183.5 727.66,-180 717.66,-176.5 717.66,-183.5"/>
</g>
</g>
</svg>
