<?xml version="1.0" encoding="UTF-8" standalone="no"?>
<!DOCTYPE svg PUBLIC "-//W3C//DTD SVG 1.1//EN"
 "http://www.w3.org/Graphics/SVG/1.1/DTD/svg11.dtd">
<!-- Generated by graphviz version 5.0.0 (20220707.1540)
 -->
<!-- Title: dependencies Pages: 1 -->
<svg width="988pt" height="247pt"
 viewBox="0.00 0.00 988.00 246.80" xmlns="http://www.w3.org/2000/svg" xmlns:xlink="http://www.w3.org/1999/xlink">
<g id="graph0" class="graph" transform="scale(1 1) rotate(0) translate(4 242.8)">
<title>dependencies</title>
<polygon fill="white" stroke="transparent" points="-4,4 -4,-242.8 984,-242.8 984,4 -4,4"/>
<text text-anchor="middle" x="490" y="-8.2" font-family="sans-serif" font-size="14.00">dependencies</text>
<g id="clust1" class="cluster">
<title>cluster_UserModule</title>
<polygon fill="none" stroke="black" stroke-dasharray="1,5" points="8,-32.8 8,-230.8 972,-230.8 972,-32.8 8,-32.8"/>
</g>
<g id="clust9" class="cluster">
<title>cluster_UserModule_exports</title>
<polygon fill="none" stroke="black" points="346,-170.8 346,-222.8 512,-222.8 512,-170.8 346,-170.8"/>
</g>
<g id="clust2" class="cluster">
<title>cluster_UserModule_declarations</title>
<polygon fill="none" stroke="black" points="138,-40.8 138,-92.8 964,-92.8 964,-40.8 138,-40.8"/>
</g>
<g id="clust8" class="cluster">
<title>cluster_UserModule_imports</title>
<polygon fill="none" stroke="black" points="16,-40.8 16,-92.8 130,-92.8 130,-40.8 16,-40.8"/>
</g>
<!-- AuthModalComponent -->
<g id="node1" class="node">
<title>AuthModalComponent</title>
<polygon fill="#ffffb3" stroke="black" points="955.88,-84.8 810.12,-84.8 810.12,-48.8 955.88,-48.8 955.88,-84.8"/>
<text text-anchor="middle" x="883" y="-62.6" font-family="Times,serif" font-size="14.00">AuthModalComponent</text>
</g>
<!-- UserModule -->
<g id="node6" class="node">
<title>UserModule</title>
<polygon fill="#8dd3c7" stroke="black" points="471.99,-149.8 468.99,-153.8 447.99,-153.8 444.99,-149.8 386.01,-149.8 386.01,-113.8 471.99,-113.8 471.99,-149.8"/>
<text text-anchor="middle" x="429" y="-127.6" font-family="Times,serif" font-size="14.00">UserModule</text>
</g>
<!-- AuthModalComponent&#45;&gt;UserModule -->
<g id="edge1" class="edge">
<title>AuthModalComponent&#45;&gt;UserModule</title>
<path fill="none" stroke="black" d="M883,-85.08C883,-106.12 883,-137.8 883,-137.8 883,-137.8 482.12,-137.8 482.12,-137.8"/>
<polygon fill="black" stroke="black" points="482.12,-134.3 472.12,-137.8 482.12,-141.3 482.12,-134.3"/>
</g>
<!-- ChangePasswordComponent -->
<g id="node2" class="node">
<title>ChangePasswordComponent</title>
<polygon fill="#ffffb3" stroke="black" points="791.77,-84.8 614.23,-84.8 614.23,-48.8 791.77,-48.8 791.77,-84.8"/>
<text text-anchor="middle" x="703" y="-62.6" font-family="Times,serif" font-size="14.00">ChangePasswordComponent</text>
</g>
<!-- ChangePasswordComponent&#45;&gt;UserModule -->
<g id="edge2" class="edge">
<title>ChangePasswordComponent&#45;&gt;UserModule</title>
<path fill="none" stroke="black" d="M703,-84.82C703,-102.17 703,-125.8 703,-125.8 703,-125.8 482.11,-125.8 482.11,-125.8"/>
<polygon fill="black" stroke="black" points="482.11,-122.3 472.11,-125.8 482.11,-129.3 482.11,-122.3"/>
</g>
<!-- ForgetPasswordComponent -->
<g id="node3" class="node">
<title>ForgetPasswordComponent</title>
<polygon fill="#ffffb3" stroke="black" points="595.55,-84.8 424.45,-84.8 424.45,-48.8 595.55,-48.8 595.55,-84.8"/>
<text text-anchor="middle" x="510" y="-62.6" font-family="Times,serif" font-size="14.00">ForgetPasswordComponent</text>
</g>
<!-- ForgetPasswordComponent&#45;&gt;UserModule -->
<g id="edge3" class="edge">
<title>ForgetPasswordComponent&#45;&gt;UserModule</title>
<path fill="none" stroke="black" d="M448.11,-84.91C448.11,-84.91 448.11,-103.79 448.11,-103.79"/>
<polygon fill="black" stroke="black" points="444.61,-103.79 448.11,-113.79 451.61,-103.79 444.61,-103.79"/>
</g>
<!-- LoginComponent -->
<g id="node4" class="node">
<title>LoginComponent</title>
<polygon fill="#ffffb3" stroke="black" points="406.27,-84.8 291.73,-84.8 291.73,-48.8 406.27,-48.8 406.27,-84.8"/>
<text text-anchor="middle" x="349" y="-62.6" font-family="Times,serif" font-size="14.00">LoginComponent</text>
</g>
<!-- LoginComponent&#45;&gt;UserModule -->
<g id="edge4" class="edge">
<title>LoginComponent&#45;&gt;UserModule</title>
<path fill="none" stroke="black" d="M396.2,-84.91C396.2,-84.91 396.2,-103.79 396.2,-103.79"/>
<polygon fill="black" stroke="black" points="392.7,-103.79 396.2,-113.79 399.7,-103.79 392.7,-103.79"/>
</g>
<!-- RegisterComponent -->
<g id="node5" class="node">
<title>RegisterComponent</title>
<polygon fill="#ffffb3" stroke="black" points="273.99,-84.8 146.01,-84.8 146.01,-48.8 273.99,-48.8 273.99,-84.8"/>
<text text-anchor="middle" x="210" y="-62.6" font-family="Times,serif" font-size="14.00">RegisterComponent</text>
</g>
<!-- RegisterComponent&#45;&gt;UserModule -->
<g id="edge5" class="edge">
<title>RegisterComponent&#45;&gt;UserModule</title>
<path fill="none" stroke="black" d="M210,-84.82C210,-102.17 210,-125.8 210,-125.8 210,-125.8 375.99,-125.8 375.99,-125.8"/>
<polygon fill="black" stroke="black" points="375.99,-129.3 385.99,-125.8 375.99,-122.3 375.99,-129.3"/>
</g>
<!-- AuthModalComponent  -->
<g id="node8" class="node">
<title>AuthModalComponent </title>
<polygon fill="#fb8072" stroke="black" points="503.88,-214.8 354.12,-214.8 354.12,-178.8 503.88,-178.8 503.88,-214.8"/>
<text text-anchor="middle" x="429" y="-192.6" font-family="Times,serif" font-size="14.00">AuthModalComponent </text>
</g>
<!-- UserModule&#45;&gt;AuthModalComponent  -->
<g id="edge7" class="edge">
<title>UserModule&#45;&gt;AuthModalComponent </title>
<path fill="none" stroke="black" stroke-dasharray="5,2" d="M429,-149.91C429,-149.91 429,-168.79 429,-168.79"/>
<polygon fill="black" stroke="black" points="425.5,-168.79 429,-178.79 432.5,-168.79 425.5,-168.79"/>
</g>
<!-- SharedModule -->
<g id="node7" class="node">
<title>SharedModule</title>
<polygon fill="#8dd3c7" stroke="black" points="122.43,-84.8 119.43,-88.8 98.43,-88.8 95.43,-84.8 23.57,-84.8 23.57,-48.8 122.43,-48.8 122.43,-84.8"/>
<text text-anchor="middle" x="73" y="-62.6" font-family="Times,serif" font-size="14.00">SharedModule</text>
</g>
<!-- SharedModule&#45;&gt;UserModule -->
<g id="edge6" class="edge">
<title>SharedModule&#45;&gt;UserModule</title>
<path fill="none" stroke="black" d="M73,-85.08C73,-106.12 73,-137.8 73,-137.8 73,-137.8 375.7,-137.8 375.7,-137.8"/>
<polygon fill="black" stroke="black" points="375.7,-141.3 385.7,-137.8 375.7,-134.3 375.7,-141.3"/>
</g>
</g>
</svg>
