<?xml version="1.0" encoding="UTF-8" standalone="no"?>
<!DOCTYPE svg PUBLIC "-//W3C//DTD SVG 1.1//EN"
 "http://www.w3.org/Graphics/SVG/1.1/DTD/svg11.dtd">
<!-- Generated by graphviz version 2.47.0 (20210316.0004)
 -->
<!-- Title: dependencies Pages: 1 -->
<svg width="2585pt" height="284pt"
 viewBox="0.00 0.00 2585.00 284.00" xmlns="http://www.w3.org/2000/svg" xmlns:xlink="http://www.w3.org/1999/xlink">
<g id="graph0" class="graph" transform="scale(1 1) rotate(0) translate(4 280)">
<title>dependencies</title>
<polygon fill="white" stroke="transparent" points="-4,4 -4,-280 2581,-280 2581,4 -4,4"/>
<text text-anchor="start" x="1267.51" y="-42.4" font-family="Times-12" font-weight="bold" font-size="14.00">Legend</text>
<polygon fill="#ffffb3" stroke="transparent" points="1054.5,-10 1054.5,-30 1074.5,-30 1074.5,-10 1054.5,-10"/>
<text text-anchor="start" x="1078.13" y="-15.4" font-family="Times-12" font-size="14.00"> &#160;Declarations</text>
<polygon fill="#8dd3c7" stroke="transparent" points="1167.5,-10 1167.5,-30 1187.5,-30 1187.5,-10 1167.5,-10"/>
<text text-anchor="start" x="1191.23" y="-15.4" font-family="Times-12" font-size="14.00"> &#160;Module</text>
<polygon fill="#80b1d3" stroke="transparent" points="1253.5,-10 1253.5,-30 1273.5,-30 1273.5,-10 1253.5,-10"/>
<text text-anchor="start" x="1277.28" y="-15.4" font-family="Times-12" font-size="14.00"> &#160;Bootstrap</text>
<polygon fill="#fdb462" stroke="transparent" points="1350.5,-10 1350.5,-30 1370.5,-30 1370.5,-10 1350.5,-10"/>
<text text-anchor="start" x="1374.17" y="-15.4" font-family="Times-12" font-size="14.00"> &#160;Providers</text>
<polygon fill="#fb8072" stroke="transparent" points="1446.5,-10 1446.5,-30 1466.5,-30 1466.5,-10 1446.5,-10"/>
<text text-anchor="start" x="1470.23" y="-15.4" font-family="Times-12" font-size="14.00"> &#160;Exports</text>
<g id="clust1" class="cluster">
<title>cluster_UserModule</title>
<polygon fill="none" stroke="black" stroke-dasharray="1,5" points="8,-70 8,-268 2569,-268 2569,-70 8,-70"/>
</g>
<g id="clust2" class="cluster">
<title>cluster_UserModule_declarations</title>
<polygon fill="none" stroke="black" points="670,-78 670,-130 2561,-130 2561,-78 670,-78"/>
</g>
<g id="clust15" class="cluster">
<title>cluster_UserModule_imports</title>
<polygon fill="none" stroke="black" points="398,-78 398,-130 662,-130 662,-78 398,-78"/>
</g>
<g id="clust18" class="cluster">
<title>cluster_UserModule_providers</title>
<polygon fill="none" stroke="black" points="16,-78 16,-130 390,-130 390,-78 16,-78"/>
</g>
<g id="clust16" class="cluster">
<title>cluster_UserModule_exports</title>
<polygon fill="none" stroke="black" points="874,-208 874,-260 1649,-260 1649,-208 874,-208"/>
</g>
<!-- AboutComponent -->
<g id="node1" class="node">
<title>AboutComponent</title>
<polygon fill="#ffffb3" stroke="black" points="2553.33,-122 2436.67,-122 2436.67,-86 2553.33,-86 2553.33,-122"/>
<text text-anchor="middle" x="2495" y="-99.8" font-family="Times,serif" font-size="14.00">AboutComponent</text>
</g>
<!-- UserModule -->
<g id="node13" class="node">
<title>UserModule</title>
<polygon fill="#8dd3c7" stroke="black" points="1302.98,-187 1299.98,-191 1278.98,-191 1275.98,-187 1217.02,-187 1217.02,-151 1302.98,-151 1302.98,-187"/>
<text text-anchor="middle" x="1260" y="-164.8" font-family="Times,serif" font-size="14.00">UserModule</text>
</g>
<!-- AboutComponent&#45;&gt;UserModule -->
<g id="edge1" class="edge">
<title>AboutComponent&#45;&gt;UserModule</title>
<path fill="none" stroke="black" d="M2495,-122.04C2495,-143.66 2495,-177 2495,-177 2495,-177 1313.23,-177 1313.23,-177"/>
<polygon fill="black" stroke="black" points="1313.23,-173.5 1303.23,-177 1313.23,-180.5 1313.23,-173.5"/>
</g>
<!-- AccountComponent -->
<g id="node2" class="node">
<title>AccountComponent</title>
<polygon fill="#ffffb3" stroke="black" points="2418.26,-122 2289.74,-122 2289.74,-86 2418.26,-86 2418.26,-122"/>
<text text-anchor="middle" x="2354" y="-99.8" font-family="Times,serif" font-size="14.00">AccountComponent</text>
</g>
<!-- AccountComponent&#45;&gt;UserModule -->
<g id="edge2" class="edge">
<title>AccountComponent&#45;&gt;UserModule</title>
<path fill="none" stroke="black" d="M2354,-122.13C2354,-142.57 2354,-173 2354,-173 2354,-173 1313.22,-173 1313.22,-173"/>
<polygon fill="black" stroke="black" points="1313.22,-169.5 1303.22,-173 1313.22,-176.5 1313.22,-169.5"/>
</g>
<!-- AuthModalComponent -->
<g id="node3" class="node">
<title>AuthModalComponent</title>
<polygon fill="#ffffb3" stroke="black" points="2271.88,-122 2126.12,-122 2126.12,-86 2271.88,-86 2271.88,-122"/>
<text text-anchor="middle" x="2199" y="-99.8" font-family="Times,serif" font-size="14.00">AuthModalComponent</text>
</g>
<!-- AuthModalComponent&#45;&gt;UserModule -->
<g id="edge3" class="edge">
<title>AuthModalComponent&#45;&gt;UserModule</title>
<path fill="none" stroke="black" d="M2199,-122.11C2199,-141.34 2199,-169 2199,-169 2199,-169 1313.1,-169 1313.1,-169"/>
<polygon fill="black" stroke="black" points="1313.1,-165.5 1303.1,-169 1313.1,-172.5 1313.1,-165.5"/>
</g>
<!-- ChangePasswordComponent -->
<g id="node4" class="node">
<title>ChangePasswordComponent</title>
<polygon fill="#ffffb3" stroke="black" points="2107.75,-122 1930.25,-122 1930.25,-86 2107.75,-86 2107.75,-122"/>
<text text-anchor="middle" x="2019" y="-99.8" font-family="Times,serif" font-size="14.00">ChangePasswordComponent</text>
</g>
<!-- ChangePasswordComponent&#45;&gt;UserModule -->
<g id="edge4" class="edge">
<title>ChangePasswordComponent&#45;&gt;UserModule</title>
<path fill="none" stroke="black" d="M2019,-122.27C2019,-140.56 2019,-166 2019,-166 2019,-166 1312.98,-166 1312.98,-166"/>
<polygon fill="black" stroke="black" points="1312.98,-162.5 1302.98,-166 1312.98,-169.5 1312.98,-162.5"/>
</g>
<!-- EditProfileComponent -->
<g id="node5" class="node">
<title>EditProfileComponent</title>
<polygon fill="#ffffb3" stroke="black" points="1912.27,-122 1769.73,-122 1769.73,-86 1912.27,-86 1912.27,-122"/>
<text text-anchor="middle" x="1841" y="-99.8" font-family="Times,serif" font-size="14.00">EditProfileComponent</text>
</g>
<!-- EditProfileComponent&#45;&gt;UserModule -->
<g id="edge5" class="edge">
<title>EditProfileComponent&#45;&gt;UserModule</title>
<path fill="none" stroke="black" d="M1841,-122.03C1841,-139.06 1841,-162 1841,-162 1841,-162 1313.19,-162 1313.19,-162"/>
<polygon fill="black" stroke="black" points="1313.19,-158.5 1303.19,-162 1313.19,-165.5 1313.19,-158.5"/>
</g>
<!-- ForgetPasswordComponent -->
<g id="node6" class="node">
<title>ForgetPasswordComponent</title>
<polygon fill="#ffffb3" stroke="black" points="1751.54,-122 1580.46,-122 1580.46,-86 1751.54,-86 1751.54,-122"/>
<text text-anchor="middle" x="1666" y="-99.8" font-family="Times,serif" font-size="14.00">ForgetPasswordComponent</text>
</g>
<!-- ForgetPasswordComponent&#45;&gt;UserModule -->
<g id="edge6" class="edge">
<title>ForgetPasswordComponent&#45;&gt;UserModule</title>
<path fill="none" stroke="black" d="M1610.46,-122.01C1610.46,-138.05 1610.46,-159 1610.46,-159 1610.46,-159 1313.32,-159 1313.32,-159"/>
<polygon fill="black" stroke="black" points="1313.32,-155.5 1303.32,-159 1313.32,-162.5 1313.32,-155.5"/>
</g>
<!-- InviteFriendComponent -->
<g id="node7" class="node">
<title>InviteFriendComponent</title>
<polygon fill="#ffffb3" stroke="black" points="1562.04,-122 1411.96,-122 1411.96,-86 1562.04,-86 1562.04,-122"/>
<text text-anchor="middle" x="1487" y="-99.8" font-family="Times,serif" font-size="14.00">InviteFriendComponent</text>
</g>
<!-- InviteFriendComponent&#45;&gt;UserModule -->
<g id="edge7" class="edge">
<title>InviteFriendComponent&#45;&gt;UserModule</title>
<path fill="none" stroke="black" d="M1442.43,-122.12C1442.43,-136.78 1442.43,-155 1442.43,-155 1442.43,-155 1313.23,-155 1313.23,-155"/>
<polygon fill="black" stroke="black" points="1313.23,-151.5 1303.23,-155 1313.23,-158.5 1313.23,-151.5"/>
</g>
<!-- LoginComponent -->
<g id="node8" class="node">
<title>LoginComponent</title>
<polygon fill="#ffffb3" stroke="black" points="1393.28,-122 1278.72,-122 1278.72,-86 1393.28,-86 1393.28,-122"/>
<text text-anchor="middle" x="1336" y="-99.8" font-family="Times,serif" font-size="14.00">LoginComponent</text>
</g>
<!-- LoginComponent&#45;&gt;UserModule -->
<g id="edge8" class="edge">
<title>LoginComponent&#45;&gt;UserModule</title>
<path fill="none" stroke="black" d="M1290.8,-122.11C1290.8,-122.11 1290.8,-140.99 1290.8,-140.99"/>
<polygon fill="black" stroke="black" points="1287.3,-140.99 1290.8,-150.99 1294.3,-140.99 1287.3,-140.99"/>
</g>
<!-- PleaseLoginComponent -->
<g id="node9" class="node">
<title>PleaseLoginComponent</title>
<polygon fill="#ffffb3" stroke="black" points="1260.04,-122 1109.96,-122 1109.96,-86 1260.04,-86 1260.04,-122"/>
<text text-anchor="middle" x="1185" y="-99.8" font-family="Times,serif" font-size="14.00">PleaseLoginComponent</text>
</g>
<!-- PleaseLoginComponent&#45;&gt;UserModule -->
<g id="edge9" class="edge">
<title>PleaseLoginComponent&#45;&gt;UserModule</title>
<path fill="none" stroke="black" d="M1238.64,-122.11C1238.64,-122.11 1238.64,-140.99 1238.64,-140.99"/>
<polygon fill="black" stroke="black" points="1235.14,-140.99 1238.64,-150.99 1242.14,-140.99 1235.14,-140.99"/>
</g>
<!-- ProfileComponent -->
<g id="node10" class="node">
<title>ProfileComponent</title>
<polygon fill="#ffffb3" stroke="black" points="1091.93,-122 972.07,-122 972.07,-86 1091.93,-86 1091.93,-122"/>
<text text-anchor="middle" x="1032" y="-99.8" font-family="Times,serif" font-size="14.00">ProfileComponent</text>
</g>
<!-- ProfileComponent&#45;&gt;UserModule -->
<g id="edge10" class="edge">
<title>ProfileComponent&#45;&gt;UserModule</title>
<path fill="none" stroke="black" d="M1062.49,-122.12C1062.49,-136.78 1062.49,-155 1062.49,-155 1062.49,-155 1206.65,-155 1206.65,-155"/>
<polygon fill="black" stroke="black" points="1206.65,-158.5 1216.65,-155 1206.65,-151.5 1206.65,-158.5"/>
</g>
<!-- RegisterComponent -->
<g id="node11" class="node">
<title>RegisterComponent</title>
<polygon fill="#ffffb3" stroke="black" points="953.98,-122 826.02,-122 826.02,-86 953.98,-86 953.98,-122"/>
<text text-anchor="middle" x="890" y="-99.8" font-family="Times,serif" font-size="14.00">RegisterComponent</text>
</g>
<!-- RegisterComponent&#45;&gt;UserModule -->
<g id="edge11" class="edge">
<title>RegisterComponent&#45;&gt;UserModule</title>
<path fill="none" stroke="black" d="M918.24,-122.01C918.24,-138.05 918.24,-159 918.24,-159 918.24,-159 1206.72,-159 1206.72,-159"/>
<polygon fill="black" stroke="black" points="1206.72,-162.5 1216.72,-159 1206.72,-155.5 1206.72,-162.5"/>
</g>
<!-- UserTabComponent -->
<g id="node12" class="node">
<title>UserTabComponent</title>
<polygon fill="#ffffb3" stroke="black" points="807.53,-122 678.47,-122 678.47,-86 807.53,-86 807.53,-122"/>
<text text-anchor="middle" x="743" y="-99.8" font-family="Times,serif" font-size="14.00">UserTabComponent</text>
</g>
<!-- UserTabComponent&#45;&gt;UserModule -->
<g id="edge12" class="edge">
<title>UserTabComponent&#45;&gt;UserModule</title>
<path fill="none" stroke="black" d="M743,-122.03C743,-139.06 743,-162 743,-162 743,-162 1206.81,-162 1206.81,-162"/>
<polygon fill="black" stroke="black" points="1206.81,-165.5 1216.81,-162 1206.81,-158.5 1206.81,-165.5"/>
</g>
<!-- AuthModalComponent  -->
<g id="node16" class="node">
<title>AuthModalComponent </title>
<polygon fill="#fb8072" stroke="black" points="1640.88,-252 1491.12,-252 1491.12,-216 1640.88,-216 1640.88,-252"/>
<text text-anchor="middle" x="1566" y="-229.8" font-family="Times,serif" font-size="14.00">AuthModalComponent </text>
</g>
<!-- UserModule&#45;&gt;AuthModalComponent  -->
<g id="edge15" class="edge">
<title>UserModule&#45;&gt;AuthModalComponent </title>
<path fill="none" stroke="black" stroke-dasharray="5,2" d="M1303.16,-180C1378.67,-180 1526.79,-180 1526.79,-180 1526.79,-180 1526.79,-205.72 1526.79,-205.72"/>
<polygon fill="black" stroke="black" points="1523.29,-205.72 1526.79,-215.72 1530.29,-205.72 1523.29,-205.72"/>
</g>
<!-- LoginComponent  -->
<g id="node17" class="node">
<title>LoginComponent </title>
<polygon fill="#fb8072" stroke="black" points="1473.28,-252 1354.72,-252 1354.72,-216 1473.28,-216 1473.28,-252"/>
<text text-anchor="middle" x="1414" y="-229.8" font-family="Times,serif" font-size="14.00">LoginComponent </text>
</g>
<!-- UserModule&#45;&gt;LoginComponent  -->
<g id="edge16" class="edge">
<title>UserModule&#45;&gt;LoginComponent </title>
<path fill="none" stroke="black" stroke-dasharray="5,2" d="M1303.15,-184C1335.46,-184 1374.12,-184 1374.12,-184 1374.12,-184 1374.12,-205.95 1374.12,-205.95"/>
<polygon fill="black" stroke="black" points="1370.63,-205.95 1374.12,-215.95 1377.63,-205.95 1370.63,-205.95"/>
</g>
<!-- PleaseLoginComponent  -->
<g id="node18" class="node">
<title>PleaseLoginComponent </title>
<polygon fill="#fb8072" stroke="black" points="1337.04,-252 1182.96,-252 1182.96,-216 1337.04,-216 1337.04,-252"/>
<text text-anchor="middle" x="1260" y="-229.8" font-family="Times,serif" font-size="14.00">PleaseLoginComponent </text>
</g>
<!-- UserModule&#45;&gt;PleaseLoginComponent  -->
<g id="edge17" class="edge">
<title>UserModule&#45;&gt;PleaseLoginComponent </title>
<path fill="none" stroke="black" stroke-dasharray="5,2" d="M1260,-187.11C1260,-187.11 1260,-205.99 1260,-205.99"/>
<polygon fill="black" stroke="black" points="1256.5,-205.99 1260,-215.99 1263.5,-205.99 1256.5,-205.99"/>
</g>
<!-- RegisterComponent  -->
<g id="node19" class="node">
<title>RegisterComponent </title>
<polygon fill="#fb8072" stroke="black" points="1164.99,-252 1033.01,-252 1033.01,-216 1164.99,-216 1164.99,-252"/>
<text text-anchor="middle" x="1099" y="-229.8" font-family="Times,serif" font-size="14.00">RegisterComponent </text>
</g>
<!-- UserModule&#45;&gt;RegisterComponent  -->
<g id="edge18" class="edge">
<title>UserModule&#45;&gt;RegisterComponent </title>
<path fill="none" stroke="black" stroke-dasharray="5,2" d="M1216.72,-184C1181.37,-184 1137.24,-184 1137.24,-184 1137.24,-184 1137.24,-205.95 1137.24,-205.95"/>
<polygon fill="black" stroke="black" points="1133.74,-205.95 1137.24,-215.95 1140.74,-205.95 1133.74,-205.95"/>
</g>
<!-- UserTabComponent  -->
<g id="node20" class="node">
<title>UserTabComponent </title>
<polygon fill="#fb8072" stroke="black" points="1015.53,-252 882.47,-252 882.47,-216 1015.53,-216 1015.53,-252"/>
<text text-anchor="middle" x="949" y="-229.8" font-family="Times,serif" font-size="14.00">UserTabComponent </text>
</g>
<!-- UserModule&#45;&gt;UserTabComponent  -->
<g id="edge19" class="edge">
<title>UserModule&#45;&gt;UserTabComponent </title>
<path fill="none" stroke="black" stroke-dasharray="5,2" d="M1216.95,-180C1141.64,-180 993.9,-180 993.9,-180 993.9,-180 993.9,-205.72 993.9,-205.72"/>
<polygon fill="black" stroke="black" points="990.4,-205.72 993.9,-215.72 997.4,-205.72 990.4,-205.72"/>
</g>
<!-- SharedModule -->
<g id="node14" class="node">
<title>SharedModule</title>
<polygon fill="#8dd3c7" stroke="black" points="654.42,-122 651.42,-126 630.42,-126 627.42,-122 555.58,-122 555.58,-86 654.42,-86 654.42,-122"/>
<text text-anchor="middle" x="605" y="-99.8" font-family="Times,serif" font-size="14.00">SharedModule</text>
</g>
<!-- SharedModule&#45;&gt;UserModule -->
<g id="edge13" class="edge">
<title>SharedModule&#45;&gt;UserModule</title>
<path fill="none" stroke="black" d="M605,-122.27C605,-140.56 605,-166 605,-166 605,-166 1207.02,-166 1207.02,-166"/>
<polygon fill="black" stroke="black" points="1207.02,-169.5 1217.02,-166 1207.02,-162.5 1207.02,-169.5"/>
</g>
<!-- UserRoutingModule -->
<g id="node15" class="node">
<title>UserRoutingModule</title>
<polygon fill="#8dd3c7" stroke="black" points="537.59,-122 534.59,-126 513.59,-126 510.59,-122 406.41,-122 406.41,-86 537.59,-86 537.59,-122"/>
<text text-anchor="middle" x="472" y="-99.8" font-family="Times,serif" font-size="14.00">UserRoutingModule</text>
</g>
<!-- UserRoutingModule&#45;&gt;UserModule -->
<g id="edge14" class="edge">
<title>UserRoutingModule&#45;&gt;UserModule</title>
<path fill="none" stroke="black" d="M472,-122.11C472,-141.34 472,-169 472,-169 472,-169 1206.79,-169 1206.79,-169"/>
<polygon fill="black" stroke="black" points="1206.79,-172.5 1216.79,-169 1206.79,-165.5 1206.79,-172.5"/>
</g>
<!-- ErrorInterceptor -->
<g id="node21" class="node">
<title>ErrorInterceptor</title>
<ellipse fill="#fdb462" stroke="black" cx="308" cy="-104" rx="73.53" ry="18"/>
<text text-anchor="middle" x="308" y="-99.8" font-family="Times,serif" font-size="14.00">ErrorInterceptor</text>
</g>
<!-- ErrorInterceptor&#45;&gt;UserModule -->
<g id="edge20" class="edge">
<title>ErrorInterceptor&#45;&gt;UserModule</title>
<path fill="none" stroke="black" d="M308,-122.13C308,-142.57 308,-173 308,-173 308,-173 1206.93,-173 1206.93,-173"/>
<polygon fill="black" stroke="black" points="1206.93,-176.5 1216.93,-173 1206.93,-169.5 1206.93,-176.5"/>
</g>
<!-- InterceptorInterceptor -->
<g id="node22" class="node">
<title>InterceptorInterceptor</title>
<ellipse fill="#fdb462" stroke="black" cx="120" cy="-104" rx="95.5" ry="18"/>
<text text-anchor="middle" x="120" y="-99.8" font-family="Times,serif" font-size="14.00">InterceptorInterceptor</text>
</g>
<!-- InterceptorInterceptor&#45;&gt;UserModule -->
<g id="edge21" class="edge">
<title>InterceptorInterceptor&#45;&gt;UserModule</title>
<path fill="none" stroke="black" d="M120,-122.04C120,-143.66 120,-177 120,-177 120,-177 1206.7,-177 1206.7,-177"/>
<polygon fill="black" stroke="black" points="1206.7,-180.5 1216.7,-177 1206.7,-173.5 1206.7,-180.5"/>
</g>
</g>
</svg>
