<?xml version="1.0" encoding="UTF-8" standalone="no"?>
<!DOCTYPE svg PUBLIC "-//W3C//DTD SVG 1.1//EN"
 "http://www.w3.org/Graphics/SVG/1.1/DTD/svg11.dtd">
<!-- Generated by graphviz version 5.0.0 (20220707.1540)
 -->
<!-- Title: dependencies Pages: 1 -->
<svg width="820pt" height="247pt"
 viewBox="0.00 0.00 820.00 246.80" xmlns="http://www.w3.org/2000/svg" xmlns:xlink="http://www.w3.org/1999/xlink">
<g id="graph0" class="graph" transform="scale(1 1) rotate(0) translate(4 242.8)">
<title>dependencies</title>
<polygon fill="white" stroke="transparent" points="-4,4 -4,-242.8 816,-242.8 816,4 -4,4"/>
<text text-anchor="middle" x="406" y="-8.2" font-family="sans-serif" font-size="14.00">dependencies</text>
<g id="clust1" class="cluster">
<title>cluster_AppModule</title>
<polygon fill="none" stroke="black" stroke-dasharray="1,5" points="8,-32.8 8,-230.8 804,-230.8 804,-32.8 8,-32.8"/>
</g>
<g id="clust2" class="cluster">
<title>cluster_AppModule_declarations</title>
<polygon fill="none" stroke="black" points="410,-40.8 410,-92.8 796,-92.8 796,-40.8 410,-40.8"/>
</g>
<g id="clust6" class="cluster">
<title>cluster_AppModule_imports</title>
<polygon fill="none" stroke="black" points="16,-40.8 16,-92.8 402,-92.8 402,-40.8 16,-40.8"/>
</g>
<g id="clust8" class="cluster">
<title>cluster_AppModule_bootstrap</title>
<polygon fill="none" stroke="black" points="343,-170.8 343,-222.8 467,-222.8 467,-170.8 343,-170.8"/>
</g>
<!-- AppComponent -->
<g id="node1" class="node">
<title>AppComponent</title>
<polygon fill="#ffffb3" stroke="black" points="787.94,-84.8 682.06,-84.8 682.06,-48.8 787.94,-48.8 787.94,-84.8"/>
<text text-anchor="middle" x="735" y="-62.6" font-family="Times,serif" font-size="14.00">AppComponent</text>
</g>
<!-- AppModule -->
<g id="node4" class="node">
<title>AppModule</title>
<polygon fill="#8dd3c7" stroke="black" points="446.66,-149.8 443.66,-153.8 422.66,-153.8 419.66,-149.8 363.34,-149.8 363.34,-113.8 446.66,-113.8 446.66,-149.8"/>
<text text-anchor="middle" x="405" y="-127.6" font-family="Times,serif" font-size="14.00">AppModule</text>
</g>
<!-- AppComponent&#45;&gt;AppModule -->
<g id="edge1" class="edge">
<title>AppComponent&#45;&gt;AppModule</title>
<path fill="none" stroke="black" d="M735,-85.08C735,-106.12 735,-137.8 735,-137.8 735,-137.8 456.79,-137.8 456.79,-137.8"/>
<polygon fill="black" stroke="black" points="456.79,-134.3 446.79,-137.8 456.79,-141.3 456.79,-134.3"/>
</g>
<!-- NavComponent -->
<g id="node2" class="node">
<title>NavComponent</title>
<polygon fill="#ffffb3" stroke="black" points="664.16,-84.8 559.84,-84.8 559.84,-48.8 664.16,-48.8 664.16,-84.8"/>
<text text-anchor="middle" x="612" y="-62.6" font-family="Times,serif" font-size="14.00">NavComponent</text>
</g>
<!-- NavComponent&#45;&gt;AppModule -->
<g id="edge2" class="edge">
<title>NavComponent&#45;&gt;AppModule</title>
<path fill="none" stroke="black" d="M612,-84.82C612,-102.17 612,-125.8 612,-125.8 612,-125.8 456.89,-125.8 456.89,-125.8"/>
<polygon fill="black" stroke="black" points="456.89,-122.3 446.89,-125.8 456.89,-129.3 456.89,-122.3"/>
</g>
<!-- SidebarComponent -->
<g id="node3" class="node">
<title>SidebarComponent</title>
<polygon fill="#ffffb3" stroke="black" points="542.1,-84.8 417.9,-84.8 417.9,-48.8 542.1,-48.8 542.1,-84.8"/>
<text text-anchor="middle" x="480" y="-62.6" font-family="Times,serif" font-size="14.00">SidebarComponent</text>
</g>
<!-- SidebarComponent&#45;&gt;AppModule -->
<g id="edge3" class="edge">
<title>SidebarComponent&#45;&gt;AppModule</title>
<path fill="none" stroke="black" d="M432.39,-84.91C432.39,-84.91 432.39,-103.79 432.39,-103.79"/>
<polygon fill="black" stroke="black" points="428.89,-103.79 432.39,-113.79 435.89,-103.79 428.89,-103.79"/>
</g>
<!-- AppComponent  -->
<g id="node8" class="node">
<title>AppComponent </title>
<polygon fill="#80b1d3" stroke="black" points="459.44,-214.8 350.56,-214.8 350.56,-178.8 459.44,-178.8 459.44,-214.8"/>
<text text-anchor="middle" x="405" y="-192.6" font-family="Times,serif" font-size="14.00">AppComponent </text>
</g>
<!-- AppModule&#45;&gt;AppComponent  -->
<g id="edge7" class="edge">
<title>AppModule&#45;&gt;AppComponent </title>
<path fill="none" stroke="black" stroke-dasharray="1,5" d="M405,-149.91C405,-149.91 405,-168.79 405,-168.79"/>
<polygon fill="black" stroke="black" points="401.5,-168.79 405,-178.79 408.5,-168.79 401.5,-168.79"/>
</g>
<!-- AppRoutingModule -->
<g id="node5" class="node">
<title>AppRoutingModule</title>
<polygon fill="#8dd3c7" stroke="black" points="394.28,-84.8 391.28,-88.8 370.28,-88.8 367.28,-84.8 265.72,-84.8 265.72,-48.8 394.28,-48.8 394.28,-84.8"/>
<text text-anchor="middle" x="330" y="-62.6" font-family="Times,serif" font-size="14.00">AppRoutingModule</text>
</g>
<!-- AppRoutingModule&#45;&gt;AppModule -->
<g id="edge4" class="edge">
<title>AppRoutingModule&#45;&gt;AppModule</title>
<path fill="none" stroke="black" d="M378.78,-84.91C378.78,-84.91 378.78,-103.79 378.78,-103.79"/>
<polygon fill="black" stroke="black" points="375.28,-103.79 378.78,-113.79 382.28,-103.79 375.28,-103.79"/>
</g>
<!-- DashboardModule -->
<g id="node6" class="node">
<title>DashboardModule</title>
<polygon fill="#8dd3c7" stroke="black" points="248.2,-84.8 245.2,-88.8 224.2,-88.8 221.2,-84.8 127.8,-84.8 127.8,-48.8 248.2,-48.8 248.2,-84.8"/>
<text text-anchor="middle" x="188" y="-62.6" font-family="Times,serif" font-size="14.00">DashboardModule</text>
</g>
<!-- DashboardModule&#45;&gt;AppModule -->
<g id="edge5" class="edge">
<title>DashboardModule&#45;&gt;AppModule</title>
<path fill="none" stroke="black" d="M188,-84.82C188,-102.17 188,-125.8 188,-125.8 188,-125.8 353.16,-125.8 353.16,-125.8"/>
<polygon fill="black" stroke="black" points="353.16,-129.3 363.16,-125.8 353.16,-122.3 353.16,-129.3"/>
</g>
<!-- UserModule -->
<g id="node7" class="node">
<title>UserModule</title>
<polygon fill="#8dd3c7" stroke="black" points="109.99,-84.8 106.99,-88.8 85.99,-88.8 82.99,-84.8 24.01,-84.8 24.01,-48.8 109.99,-48.8 109.99,-84.8"/>
<text text-anchor="middle" x="67" y="-62.6" font-family="Times,serif" font-size="14.00">UserModule</text>
</g>
<!-- UserModule&#45;&gt;AppModule -->
<g id="edge6" class="edge">
<title>UserModule&#45;&gt;AppModule</title>
<path fill="none" stroke="black" d="M67,-85.08C67,-106.12 67,-137.8 67,-137.8 67,-137.8 353.22,-137.8 353.22,-137.8"/>
<polygon fill="black" stroke="black" points="353.22,-141.3 363.22,-137.8 353.22,-134.3 353.22,-141.3"/>
</g>
</g>
</svg>
