<?xml version="1.0" encoding="UTF-8" standalone="no"?>
<!DOCTYPE svg PUBLIC "-//W3C//DTD SVG 1.1//EN"
 "http://www.w3.org/Graphics/SVG/1.1/DTD/svg11.dtd">
<!-- Generated by graphviz version 2.47.0 (20210316.0004)
 -->
<!-- Title: dependencies Pages: 1 -->
<svg width="1732pt" height="284pt"
 viewBox="0.00 0.00 1732.00 284.00" xmlns="http://www.w3.org/2000/svg" xmlns:xlink="http://www.w3.org/1999/xlink">
<g id="graph0" class="graph" transform="scale(1 1) rotate(0) translate(4 280)">
<title>dependencies</title>
<polygon fill="white" stroke="transparent" points="-4,4 -4,-280 1728,-280 1728,4 -4,4"/>
<text text-anchor="start" x="841.01" y="-42.4" font-family="Times-12" font-weight="bold" font-size="14.00">Legend</text>
<polygon fill="#ffffb3" stroke="transparent" points="628,-10 628,-30 648,-30 648,-10 628,-10"/>
<text text-anchor="start" x="651.63" y="-15.4" font-family="Times-12" font-size="14.00"> &#160;Declarations</text>
<polygon fill="#8dd3c7" stroke="transparent" points="741,-10 741,-30 761,-30 761,-10 741,-10"/>
<text text-anchor="start" x="764.73" y="-15.4" font-family="Times-12" font-size="14.00"> &#160;Module</text>
<polygon fill="#80b1d3" stroke="transparent" points="827,-10 827,-30 847,-30 847,-10 827,-10"/>
<text text-anchor="start" x="850.78" y="-15.4" font-family="Times-12" font-size="14.00"> &#160;Bootstrap</text>
<polygon fill="#fdb462" stroke="transparent" points="924,-10 924,-30 944,-30 944,-10 924,-10"/>
<text text-anchor="start" x="947.67" y="-15.4" font-family="Times-12" font-size="14.00"> &#160;Providers</text>
<polygon fill="#fb8072" stroke="transparent" points="1020,-10 1020,-30 1040,-30 1040,-10 1020,-10"/>
<text text-anchor="start" x="1043.73" y="-15.4" font-family="Times-12" font-size="14.00"> &#160;Exports</text>
<g id="clust1" class="cluster">
<title>cluster_AppModule</title>
<polygon fill="none" stroke="black" stroke-dasharray="1,5" points="8,-70 8,-268 1716,-268 1716,-70 8,-70"/>
</g>
<g id="clust2" class="cluster">
<title>cluster_AppModule_declarations</title>
<polygon fill="none" stroke="black" points="949,-78 949,-130 1708,-130 1708,-78 949,-78"/>
</g>
<g id="clust11" class="cluster">
<title>cluster_AppModule_providers</title>
<polygon fill="none" stroke="black" points="567,-78 567,-130 941,-130 941,-78 567,-78"/>
</g>
<g id="clust8" class="cluster">
<title>cluster_AppModule_imports</title>
<polygon fill="none" stroke="black" points="16,-78 16,-130 559,-130 559,-78 16,-78"/>
</g>
<g id="clust10" class="cluster">
<title>cluster_AppModule_bootstrap</title>
<polygon fill="none" stroke="black" points="797,-208 797,-260 921,-260 921,-208 797,-208"/>
</g>
<!-- AppComponent -->
<g id="node1" class="node">
<title>AppComponent</title>
<polygon fill="#ffffb3" stroke="black" points="1699.94,-122 1594.06,-122 1594.06,-86 1699.94,-86 1699.94,-122"/>
<text text-anchor="middle" x="1647" y="-99.8" font-family="Times,serif" font-size="14.00">AppComponent</text>
</g>
<!-- AppModule -->
<g id="node6" class="node">
<title>AppModule</title>
<polygon fill="#8dd3c7" stroke="black" points="900.66,-187 897.66,-191 876.66,-191 873.66,-187 817.34,-187 817.34,-151 900.66,-151 900.66,-187"/>
<text text-anchor="middle" x="859" y="-164.8" font-family="Times,serif" font-size="14.00">AppModule</text>
</g>
<!-- AppComponent&#45;&gt;AppModule -->
<g id="edge1" class="edge">
<title>AppComponent&#45;&gt;AppModule</title>
<path fill="none" stroke="black" d="M1647,-122.25C1647,-145.02 1647,-181 1647,-181 1647,-181 910.81,-181 910.81,-181"/>
<polygon fill="black" stroke="black" points="910.81,-177.5 900.81,-181 910.81,-184.5 910.81,-177.5"/>
</g>
<!-- BookingComponent -->
<g id="node2" class="node">
<title>BookingComponent</title>
<polygon fill="#ffffb3" stroke="black" points="1576.56,-122 1447.44,-122 1447.44,-86 1576.56,-86 1576.56,-122"/>
<text text-anchor="middle" x="1512" y="-99.8" font-family="Times,serif" font-size="14.00">BookingComponent</text>
</g>
<!-- BookingComponent&#45;&gt;AppModule -->
<g id="edge2" class="edge">
<title>BookingComponent&#45;&gt;AppModule</title>
<path fill="none" stroke="black" d="M1512,-122.28C1512,-143.32 1512,-175 1512,-175 1512,-175 910.84,-175 910.84,-175"/>
<polygon fill="black" stroke="black" points="910.84,-171.5 900.84,-175 910.84,-178.5 910.84,-171.5"/>
</g>
<!-- FeedbackComponent -->
<g id="node3" class="node">
<title>FeedbackComponent</title>
<polygon fill="#ffffb3" stroke="black" points="1429.47,-122 1294.53,-122 1294.53,-86 1429.47,-86 1429.47,-122"/>
<text text-anchor="middle" x="1362" y="-99.8" font-family="Times,serif" font-size="14.00">FeedbackComponent</text>
</g>
<!-- FeedbackComponent&#45;&gt;AppModule -->
<g id="edge3" class="edge">
<title>FeedbackComponent&#45;&gt;AppModule</title>
<path fill="none" stroke="black" d="M1362,-122.11C1362,-141.34 1362,-169 1362,-169 1362,-169 911.02,-169 911.02,-169"/>
<polygon fill="black" stroke="black" points="911.02,-165.5 901.02,-169 911.02,-172.5 911.02,-165.5"/>
</g>
<!-- FeedbackHistoryComponent -->
<g id="node4" class="node">
<title>FeedbackHistoryComponent</title>
<polygon fill="#ffffb3" stroke="black" points="1276.47,-122 1099.53,-122 1099.53,-86 1276.47,-86 1276.47,-122"/>
<text text-anchor="middle" x="1188" y="-99.8" font-family="Times,serif" font-size="14.00">FeedbackHistoryComponent</text>
</g>
<!-- FeedbackHistoryComponent&#45;&gt;AppModule -->
<g id="edge4" class="edge">
<title>FeedbackHistoryComponent&#45;&gt;AppModule</title>
<path fill="none" stroke="black" d="M1188,-122.02C1188,-139.37 1188,-163 1188,-163 1188,-163 910.67,-163 910.67,-163"/>
<polygon fill="black" stroke="black" points="910.67,-159.5 900.67,-163 910.67,-166.5 910.67,-159.5"/>
</g>
<!-- SidebarComponent -->
<g id="node5" class="node">
<title>SidebarComponent</title>
<polygon fill="#ffffb3" stroke="black" points="1081.1,-122 956.9,-122 956.9,-86 1081.1,-86 1081.1,-122"/>
<text text-anchor="middle" x="1019" y="-99.8" font-family="Times,serif" font-size="14.00">SidebarComponent</text>
</g>
<!-- SidebarComponent&#45;&gt;AppModule -->
<g id="edge5" class="edge">
<title>SidebarComponent&#45;&gt;AppModule</title>
<path fill="none" stroke="black" d="M1019,-122.24C1019,-137.57 1019,-157 1019,-157 1019,-157 911.04,-157 911.04,-157"/>
<polygon fill="black" stroke="black" points="911.04,-153.5 901.04,-157 911.04,-160.5 911.04,-153.5"/>
</g>
<!-- AppComponent  -->
<g id="node11" class="node">
<title>AppComponent </title>
<polygon fill="#80b1d3" stroke="black" points="913.44,-252 804.56,-252 804.56,-216 913.44,-216 913.44,-252"/>
<text text-anchor="middle" x="859" y="-229.8" font-family="Times,serif" font-size="14.00">AppComponent </text>
</g>
<!-- AppModule&#45;&gt;AppComponent  -->
<g id="edge10" class="edge">
<title>AppModule&#45;&gt;AppComponent </title>
<path fill="none" stroke="black" stroke-dasharray="1,5" d="M859,-187.11C859,-187.11 859,-205.99 859,-205.99"/>
<polygon fill="black" stroke="black" points="855.5,-205.99 859,-215.99 862.5,-205.99 855.5,-205.99"/>
</g>
<!-- AdminDashboardModule -->
<g id="node7" class="node">
<title>AdminDashboardModule</title>
<polygon fill="#8dd3c7" stroke="black" points="550.58,-122 547.58,-126 526.58,-126 523.58,-122 391.42,-122 391.42,-86 550.58,-86 550.58,-122"/>
<text text-anchor="middle" x="471" y="-99.8" font-family="Times,serif" font-size="14.00">AdminDashboardModule</text>
</g>
<!-- AdminDashboardModule&#45;&gt;AppModule -->
<g id="edge6" class="edge">
<title>AdminDashboardModule&#45;&gt;AppModule</title>
<path fill="none" stroke="black" d="M471,-122.02C471,-139.37 471,-163 471,-163 471,-163 807.11,-163 807.11,-163"/>
<polygon fill="black" stroke="black" points="807.11,-166.5 817.11,-163 807.11,-159.5 807.11,-166.5"/>
</g>
<!-- AppRoutingModule -->
<g id="node8" class="node">
<title>AppRoutingModule</title>
<polygon fill="#8dd3c7" stroke="black" points="373.27,-122 370.27,-126 349.27,-126 346.27,-122 244.73,-122 244.73,-86 373.27,-86 373.27,-122"/>
<text text-anchor="middle" x="309" y="-99.8" font-family="Times,serif" font-size="14.00">AppRoutingModule</text>
</g>
<!-- AppRoutingModule&#45;&gt;AppModule -->
<g id="edge7" class="edge">
<title>AppRoutingModule&#45;&gt;AppModule</title>
<path fill="none" stroke="black" d="M309,-122.11C309,-141.34 309,-169 309,-169 309,-169 807.21,-169 807.21,-169"/>
<polygon fill="black" stroke="black" points="807.21,-172.5 817.21,-169 807.21,-165.5 807.21,-172.5"/>
</g>
<!-- SharedModule -->
<g id="node9" class="node">
<title>SharedModule</title>
<polygon fill="#8dd3c7" stroke="black" points="226.42,-122 223.42,-126 202.42,-126 199.42,-122 127.58,-122 127.58,-86 226.42,-86 226.42,-122"/>
<text text-anchor="middle" x="177" y="-99.8" font-family="Times,serif" font-size="14.00">SharedModule</text>
</g>
<!-- SharedModule&#45;&gt;AppModule -->
<g id="edge8" class="edge">
<title>SharedModule&#45;&gt;AppModule</title>
<path fill="none" stroke="black" d="M177,-122.28C177,-143.32 177,-175 177,-175 177,-175 807.11,-175 807.11,-175"/>
<polygon fill="black" stroke="black" points="807.11,-178.5 817.11,-175 807.11,-171.5 807.11,-178.5"/>
</g>
<!-- UserModule -->
<g id="node10" class="node">
<title>UserModule</title>
<polygon fill="#8dd3c7" stroke="black" points="109.98,-122 106.98,-126 85.98,-126 82.98,-122 24.02,-122 24.02,-86 109.98,-86 109.98,-122"/>
<text text-anchor="middle" x="67" y="-99.8" font-family="Times,serif" font-size="14.00">UserModule</text>
</g>
<!-- UserModule&#45;&gt;AppModule -->
<g id="edge9" class="edge">
<title>UserModule&#45;&gt;AppModule</title>
<path fill="none" stroke="black" d="M67,-122.25C67,-145.02 67,-181 67,-181 67,-181 807.26,-181 807.26,-181"/>
<polygon fill="black" stroke="black" points="807.26,-184.5 817.26,-181 807.26,-177.5 807.26,-184.5"/>
</g>
<!-- ErrorInterceptor -->
<g id="node12" class="node">
<title>ErrorInterceptor</title>
<ellipse fill="#fdb462" stroke="black" cx="859" cy="-104" rx="73.53" ry="18"/>
<text text-anchor="middle" x="859" y="-99.8" font-family="Times,serif" font-size="14.00">ErrorInterceptor</text>
</g>
<!-- ErrorInterceptor&#45;&gt;AppModule -->
<g id="edge11" class="edge">
<title>ErrorInterceptor&#45;&gt;AppModule</title>
<path fill="none" stroke="black" d="M859,-122.11C859,-122.11 859,-140.99 859,-140.99"/>
<polygon fill="black" stroke="black" points="855.5,-140.99 859,-150.99 862.5,-140.99 855.5,-140.99"/>
</g>
<!-- InterceptorInterceptor -->
<g id="node13" class="node">
<title>InterceptorInterceptor</title>
<ellipse fill="#fdb462" stroke="black" cx="671" cy="-104" rx="95.5" ry="18"/>
<text text-anchor="middle" x="671" y="-99.8" font-family="Times,serif" font-size="14.00">InterceptorInterceptor</text>
</g>
<!-- InterceptorInterceptor&#45;&gt;AppModule -->
<g id="edge12" class="edge">
<title>InterceptorInterceptor&#45;&gt;AppModule</title>
<path fill="none" stroke="black" d="M671,-122.24C671,-137.57 671,-157 671,-157 671,-157 807.28,-157 807.28,-157"/>
<polygon fill="black" stroke="black" points="807.28,-160.5 817.28,-157 807.28,-153.5 807.28,-160.5"/>
</g>
</g>
</svg>
