<?xml version="1.0" encoding="UTF-8" standalone="no"?>
<!DOCTYPE svg PUBLIC "-//W3C//DTD SVG 1.1//EN"
 "http://www.w3.org/Graphics/SVG/1.1/DTD/svg11.dtd">
<!-- Generated by graphviz version 2.47.0 (20210316.0004)
 -->
<!-- Title: dependencies Pages: 1 -->
<svg width="1050pt" height="211pt"
 viewBox="0.00 0.00 1050.00 211.00" xmlns="http://www.w3.org/2000/svg" xmlns:xlink="http://www.w3.org/1999/xlink">
<g id="graph0" class="graph" transform="scale(1 1) rotate(0) translate(4 207)">
<title>dependencies</title>
<polygon fill="white" stroke="transparent" points="-4,4 -4,-207 1046,-207 1046,4 -4,4"/>
<text text-anchor="start" x="500.01" y="-42.4" font-family="Times-12" font-weight="bold" font-size="14.00">Legend</text>
<polygon fill="#ffffb3" stroke="transparent" points="287,-10 287,-30 307,-30 307,-10 287,-10"/>
<text text-anchor="start" x="310.63" y="-15.4" font-family="Times-12" font-size="14.00"> &#160;Declarations</text>
<polygon fill="#8dd3c7" stroke="transparent" points="400,-10 400,-30 420,-30 420,-10 400,-10"/>
<text text-anchor="start" x="423.73" y="-15.4" font-family="Times-12" font-size="14.00"> &#160;Module</text>
<polygon fill="#80b1d3" stroke="transparent" points="486,-10 486,-30 506,-30 506,-10 486,-10"/>
<text text-anchor="start" x="509.78" y="-15.4" font-family="Times-12" font-size="14.00"> &#160;Bootstrap</text>
<polygon fill="#fdb462" stroke="transparent" points="583,-10 583,-30 603,-30 603,-10 583,-10"/>
<text text-anchor="start" x="606.67" y="-15.4" font-family="Times-12" font-size="14.00"> &#160;Providers</text>
<polygon fill="#fb8072" stroke="transparent" points="679,-10 679,-30 699,-30 699,-10 679,-10"/>
<text text-anchor="start" x="702.73" y="-15.4" font-family="Times-12" font-size="14.00"> &#160;Exports</text>
<g id="clust1" class="cluster">
<title>cluster_AdminDashboardModule</title>
<polygon fill="none" stroke="black" stroke-dasharray="1,5" points="8,-70 8,-195 1034,-195 1034,-70 8,-70"/>
</g>
<g id="clust2" class="cluster">
<title>cluster_AdminDashboardModule_declarations</title>
<polygon fill="none" stroke="black" points="360,-78 360,-130 1026,-130 1026,-78 360,-78"/>
</g>
<g id="clust7" class="cluster">
<title>cluster_AdminDashboardModule_imports</title>
<polygon fill="none" stroke="black" points="16,-78 16,-130 352,-130 352,-78 16,-78"/>
</g>
<!-- AddFoodComponent -->
<g id="node1" class="node">
<title>AddFoodComponent</title>
<polygon fill="#ffffb3" stroke="black" points="1018.22,-122 883.78,-122 883.78,-86 1018.22,-86 1018.22,-122"/>
<text text-anchor="middle" x="951" y="-99.8" font-family="Times,serif" font-size="14.00">AddFoodComponent</text>
</g>
<!-- AdminDashboardModule -->
<g id="node5" class="node">
<title>AdminDashboardModule</title>
<polygon fill="#8dd3c7" stroke="black" points="610.58,-187 607.58,-191 586.58,-191 583.58,-187 451.42,-187 451.42,-151 610.58,-151 610.58,-187"/>
<text text-anchor="middle" x="531" y="-164.8" font-family="Times,serif" font-size="14.00">AdminDashboardModule</text>
</g>
<!-- AddFoodComponent&#45;&gt;AdminDashboardModule -->
<g id="edge1" class="edge">
<title>AddFoodComponent&#45;&gt;AdminDashboardModule</title>
<path fill="none" stroke="black" d="M951,-122.28C951,-143.32 951,-175 951,-175 951,-175 620.99,-175 620.99,-175"/>
<polygon fill="black" stroke="black" points="620.99,-171.5 610.99,-175 620.99,-178.5 620.99,-171.5"/>
</g>
<!-- DeleteFoodComponent -->
<g id="node2" class="node">
<title>DeleteFoodComponent</title>
<polygon fill="#ffffb3" stroke="black" points="866.15,-122 719.85,-122 719.85,-86 866.15,-86 866.15,-122"/>
<text text-anchor="middle" x="793" y="-99.8" font-family="Times,serif" font-size="14.00">DeleteFoodComponent</text>
</g>
<!-- DeleteFoodComponent&#45;&gt;AdminDashboardModule -->
<g id="edge2" class="edge">
<title>DeleteFoodComponent&#45;&gt;AdminDashboardModule</title>
<path fill="none" stroke="black" d="M793,-122.02C793,-139.37 793,-163 793,-163 793,-163 620.68,-163 620.68,-163"/>
<polygon fill="black" stroke="black" points="620.68,-159.5 610.68,-163 620.68,-166.5 620.68,-159.5"/>
</g>
<!-- FoodInventoryComponent -->
<g id="node3" class="node">
<title>FoodInventoryComponent</title>
<polygon fill="#ffffb3" stroke="black" points="701.04,-122 536.96,-122 536.96,-86 701.04,-86 701.04,-122"/>
<text text-anchor="middle" x="619" y="-99.8" font-family="Times,serif" font-size="14.00">FoodInventoryComponent</text>
</g>
<!-- FoodInventoryComponent&#45;&gt;AdminDashboardModule -->
<g id="edge3" class="edge">
<title>FoodInventoryComponent&#45;&gt;AdminDashboardModule</title>
<path fill="none" stroke="black" d="M573.63,-122.11C573.63,-122.11 573.63,-140.99 573.63,-140.99"/>
<polygon fill="black" stroke="black" points="570.13,-140.99 573.63,-150.99 577.13,-140.99 570.13,-140.99"/>
</g>
<!-- UpdateFoodComponent -->
<g id="node4" class="node">
<title>UpdateFoodComponent</title>
<polygon fill="#ffffb3" stroke="black" points="518.04,-122 367.96,-122 367.96,-86 518.04,-86 518.04,-122"/>
<text text-anchor="middle" x="443" y="-99.8" font-family="Times,serif" font-size="14.00">UpdateFoodComponent</text>
</g>
<!-- UpdateFoodComponent&#45;&gt;AdminDashboardModule -->
<g id="edge4" class="edge">
<title>UpdateFoodComponent&#45;&gt;AdminDashboardModule</title>
<path fill="none" stroke="black" d="M484.87,-122.11C484.87,-122.11 484.87,-140.99 484.87,-140.99"/>
<polygon fill="black" stroke="black" points="481.37,-140.99 484.87,-150.99 488.37,-140.99 481.37,-140.99"/>
</g>
<!-- AdminDashboardRoutingModule -->
<g id="node6" class="node">
<title>AdminDashboardRoutingModule</title>
<polygon fill="#8dd3c7" stroke="black" points="344.2,-122 341.2,-126 320.2,-126 317.2,-122 139.8,-122 139.8,-86 344.2,-86 344.2,-122"/>
<text text-anchor="middle" x="242" y="-99.8" font-family="Times,serif" font-size="14.00">AdminDashboardRoutingModule</text>
</g>
<!-- AdminDashboardRoutingModule&#45;&gt;AdminDashboardModule -->
<g id="edge5" class="edge">
<title>AdminDashboardRoutingModule&#45;&gt;AdminDashboardModule</title>
<path fill="none" stroke="black" d="M242,-122.02C242,-139.37 242,-163 242,-163 242,-163 441.26,-163 441.26,-163"/>
<polygon fill="black" stroke="black" points="441.26,-166.5 451.26,-163 441.26,-159.5 441.26,-166.5"/>
</g>
<!-- SharedModule -->
<g id="node7" class="node">
<title>SharedModule</title>
<polygon fill="#8dd3c7" stroke="black" points="122.42,-122 119.42,-126 98.42,-126 95.42,-122 23.58,-122 23.58,-86 122.42,-86 122.42,-122"/>
<text text-anchor="middle" x="73" y="-99.8" font-family="Times,serif" font-size="14.00">SharedModule</text>
</g>
<!-- SharedModule&#45;&gt;AdminDashboardModule -->
<g id="edge6" class="edge">
<title>SharedModule&#45;&gt;AdminDashboardModule</title>
<path fill="none" stroke="black" d="M73,-122.28C73,-143.32 73,-175 73,-175 73,-175 441.22,-175 441.22,-175"/>
<polygon fill="black" stroke="black" points="441.22,-178.5 451.22,-175 441.22,-171.5 441.22,-178.5"/>
</g>
</g>
</svg>
